<svg width="176" height="156" viewBox="0 0 176 156" fill="none" xmlns="http://www.w3.org/2000/svg">
<path d="M175.94 152.054C175.94 152.091 136.551 152.123 87.974 152.123C39.397 152.123 0 152.091 0 152.054C0 152.017 39.3784 151.985 87.974 151.985C136.57 151.985 175.94 152.015 175.94 152.054Z" fill="#263238"/>
<path d="M163.55 138.995L165.81 147.958L169.646 154.528C169.712 154.64 169.754 154.765 169.769 154.894C169.785 155.023 169.774 155.154 169.736 155.278C169.699 155.403 169.637 155.518 169.553 155.618C169.469 155.717 169.365 155.798 169.249 155.856C169.115 155.924 168.966 155.96 168.816 155.96C168.665 155.96 168.517 155.924 168.383 155.856C166.658 154.928 160.336 151.482 160.209 150.818C160.058 150.048 157.193 141.524 157.193 141.524L163.55 138.995Z" fill="#FF725E"/>
<g opacity="0.6">
<path d="M169.249 155.856L160.04 150.203L160.146 150.579C160.236 150.905 160.439 151.189 160.72 151.38C161.469 151.889 163.574 153.245 168.355 155.849C168.492 155.922 168.646 155.961 168.802 155.961C168.958 155.961 169.111 155.922 169.249 155.849V155.856Z" fill="white"/>
</g>
<g opacity="0.6">
<path d="M161.079 146.823C161.211 146.873 161.321 146.97 161.386 147.096C161.451 147.222 161.467 147.367 161.431 147.504C161.386 147.637 161.291 147.748 161.167 147.813C161.042 147.879 160.897 147.894 160.762 147.856C160.622 147.803 160.507 147.699 160.439 147.566C160.37 147.433 160.354 147.28 160.392 147.135C160.454 147.001 160.565 146.896 160.703 146.841C160.841 146.787 160.994 146.788 161.132 146.844" fill="white"/>
</g>
<path d="M166.144 152.525C166.284 152.188 166.484 151.88 166.735 151.615C167.026 151.394 167.357 151.232 167.71 151.137C167.71 151.113 167.58 151.074 167.358 151.102C167.075 151.149 166.811 151.275 166.597 151.465C166.383 151.655 166.227 151.902 166.148 152.177C166.084 152.388 166.109 152.525 166.144 152.525Z" fill="#263238"/>
<path d="M167.098 153.541C167.151 153.565 167.358 153.189 167.781 152.94C168.054 152.806 168.335 152.688 168.622 152.588C168.461 152.542 168.291 152.534 168.126 152.566C167.962 152.597 167.807 152.668 167.675 152.771C167.2 153.07 167.045 153.541 167.098 153.541Z" fill="#263238"/>
<path d="M164.525 151.324C165.09 150.561 165.865 149.98 166.756 149.651C166.263 149.688 165.791 149.865 165.396 150.162C165 150.458 164.698 150.861 164.525 151.324V151.324Z" fill="#263238"/>
<path d="M163.61 148.657C163.648 148.702 164.085 148.362 164.718 148.161C165.352 147.961 165.905 147.975 165.908 147.915C165.912 147.856 165.338 147.747 164.655 147.968C164.237 148.069 163.867 148.312 163.61 148.657V148.657Z" fill="#263238"/>
<path d="M162.877 146.043C163.232 145.809 163.617 145.626 164.021 145.498C164.439 145.431 164.864 145.42 165.285 145.467C165.285 145.445 165.165 145.361 164.933 145.298C164.619 145.223 164.292 145.223 163.978 145.298C163.665 145.373 163.373 145.521 163.127 145.73C162.937 145.892 162.86 146.025 162.877 146.043Z" fill="#263238"/>
<path d="M163.867 145.003C163.865 144.881 163.837 144.761 163.786 144.651C163.668 144.352 163.493 144.077 163.272 143.843C163.124 143.659 162.92 143.528 162.691 143.471C162.613 143.46 162.533 143.473 162.463 143.508C162.393 143.543 162.335 143.599 162.297 143.668C162.235 143.807 162.225 143.964 162.268 144.11C162.372 144.404 162.574 144.653 162.842 144.813C163.109 144.974 163.424 145.036 163.733 144.989C164.036 144.938 164.318 144.798 164.541 144.586C164.764 144.374 164.919 144.101 164.986 143.801C165.003 143.725 165.004 143.647 164.987 143.571C164.971 143.495 164.938 143.424 164.891 143.362C164.839 143.302 164.769 143.26 164.691 143.245C164.613 143.23 164.532 143.241 164.461 143.278C164.256 143.386 164.082 143.545 163.958 143.741C163.77 144.002 163.63 144.293 163.543 144.602C163.501 144.714 163.483 144.834 163.49 144.954C163.627 144.553 163.824 144.175 164.074 143.833C164.189 143.666 164.342 143.53 164.521 143.436C164.56 143.417 164.604 143.412 164.647 143.42C164.689 143.428 164.728 143.45 164.757 143.481C164.784 143.524 164.802 143.572 164.81 143.622C164.818 143.673 164.816 143.724 164.803 143.773C164.734 144.029 164.594 144.261 164.4 144.441C164.205 144.622 163.962 144.743 163.701 144.792C163.439 144.83 163.172 144.777 162.945 144.643C162.717 144.509 162.541 144.301 162.448 144.054C162.412 143.955 162.412 143.847 162.448 143.748C162.467 143.71 162.499 143.678 162.537 143.658C162.576 143.637 162.62 143.63 162.663 143.636C162.857 143.683 163.032 143.79 163.163 143.942C163.458 144.251 163.696 144.61 163.867 145.003V145.003Z" fill="#263238"/>
<path d="M133.306 140.411L133.806 147.936C133.806 147.936 126.301 150.424 126.255 151.826L140.923 151.931L140.628 140.168L133.306 140.411Z" fill="#FF725E"/>
<g opacity="0.6">
<path d="M138.336 147.167C138.478 147.207 138.6 147.297 138.68 147.42C138.76 147.544 138.792 147.693 138.769 147.838C138.735 147.981 138.648 148.106 138.525 148.187C138.402 148.268 138.252 148.299 138.107 148.274C137.959 148.232 137.831 148.137 137.747 148.008C137.664 147.879 137.63 147.723 137.653 147.571C137.703 147.426 137.808 147.305 137.945 147.235C138.082 147.165 138.241 147.15 138.389 147.195" fill="white"/>
</g>
<g opacity="0.6">
<path d="M140.923 151.931L140.895 150.744L126.72 151.137C126.569 151.213 126.441 151.326 126.345 151.465C126.25 151.603 126.191 151.764 126.174 151.931H140.923Z" fill="white"/>
</g>
<path d="M133.566 147.87C133.566 147.944 133.918 147.965 134.27 148.182C134.622 148.4 134.826 148.695 134.893 148.667C134.96 148.639 134.837 148.228 134.401 147.965C133.964 147.701 133.549 147.807 133.566 147.87Z" fill="#263238"/>
<path d="M132.049 148.551C132.049 148.622 132.349 148.734 132.598 149.029C132.848 149.324 132.933 149.641 133.003 149.637C133.074 149.634 133.109 149.226 132.789 148.864C132.468 148.502 132.049 148.485 132.049 148.551Z" fill="#263238"/>
<path d="M131.233 150.417C131.296 150.417 131.384 150.066 131.19 149.683C130.997 149.3 130.655 149.152 130.627 149.212C130.599 149.272 130.81 149.475 130.979 149.795C131.148 150.115 131.159 150.41 131.233 150.417Z" fill="#263238"/>
<path d="M133.644 146.141C133.675 146.208 133.996 146.099 134.408 146.113C134.819 146.127 135.133 146.246 135.168 146.183C135.203 146.12 134.89 145.878 134.415 145.864C133.939 145.849 133.605 146.088 133.644 146.141Z" fill="#263238"/>
<g opacity="0.3">
<path d="M133.408 141.9L133.496 143.242L140.698 142.958L140.67 141.749L133.408 141.9Z" fill="black"/>
</g>
<path d="M133.57 144.623C133.813 144.679 134.067 144.669 134.306 144.595C134.568 144.54 134.824 144.454 135.066 144.339C135.21 144.27 135.349 144.19 135.481 144.1C135.563 144.053 135.636 143.992 135.696 143.921C135.741 143.869 135.768 143.803 135.772 143.734C135.776 143.666 135.756 143.598 135.717 143.541C135.68 143.493 135.632 143.453 135.577 143.426C135.522 143.4 135.462 143.386 135.4 143.386C135.307 143.389 135.215 143.404 135.126 143.432C134.971 143.476 134.82 143.534 134.675 143.604C134.43 143.722 134.205 143.879 134.01 144.068C133.679 144.391 133.573 144.662 133.598 144.676C133.623 144.69 133.788 144.469 134.126 144.198C134.324 144.043 134.54 143.913 134.77 143.812C134.906 143.753 135.046 143.705 135.189 143.668C135.34 143.625 135.474 143.618 135.516 143.685C135.559 143.752 135.516 143.724 135.516 143.769C135.469 143.819 135.416 143.863 135.358 143.899C135.025 144.129 134.66 144.306 134.274 144.426C134.035 144.476 133.8 144.542 133.57 144.623V144.623Z" fill="#263238"/>
<path d="M133.668 144.722C133.798 144.511 133.858 144.265 133.841 144.019C133.844 143.747 133.802 143.476 133.714 143.218C133.661 143.065 133.594 142.918 133.514 142.779C133.471 142.684 133.404 142.602 133.32 142.54C133.237 142.479 133.138 142.44 133.035 142.427C132.97 142.432 132.908 142.454 132.855 142.492C132.802 142.53 132.761 142.582 132.736 142.642C132.7 142.728 132.678 142.819 132.669 142.912C132.642 143.075 132.642 143.241 132.669 143.404C132.716 143.678 132.831 143.935 133.003 144.152C133.302 144.525 133.605 144.599 133.609 144.574C133.612 144.549 133.408 144.405 133.162 144.054C133.028 143.848 132.942 143.615 132.908 143.372C132.889 143.233 132.889 143.091 132.908 142.951C132.908 142.793 132.982 142.666 133.042 142.68C133.102 142.694 133.243 142.789 133.306 142.912C133.38 143.037 133.445 143.167 133.5 143.302C133.587 143.536 133.643 143.781 133.665 144.029C133.697 144.441 133.626 144.711 133.668 144.722Z" fill="#263238"/>
<path d="M133.271 74.7711L155.616 74.6024L166.415 145.4L157.14 146.573L145.256 88.3614L141.698 146.781L141.687 146.956L131.659 146.781L133.271 74.7711Z" fill="#263238"/>
<path d="M144.507 86.8365C144.515 86.5484 144.496 86.2602 144.45 85.9757C144.397 85.4416 144.341 84.7108 144.317 83.8992C144.292 83.0876 144.317 82.3497 144.317 81.8192C144.344 81.5306 144.344 81.24 144.317 80.9514C144.238 81.2307 144.193 81.5186 144.183 81.8087C144.056 83.2023 144.098 84.6062 144.309 85.9897C144.337 86.2795 144.403 86.5643 144.507 86.8365Z" fill="#455A64"/>
<path d="M142.666 81.1622C142.666 81.1622 142.627 81.12 142.535 81.113C142.409 81.1091 142.285 81.1475 142.183 81.2219C142.1 81.279 142.031 81.3548 141.982 81.4432C141.933 81.5317 141.906 81.6304 141.902 81.7314C141.912 81.8573 141.96 81.9774 142.038 82.0769C142.116 82.1765 142.221 82.2511 142.341 82.2917C142.461 82.3324 142.59 82.3373 142.713 82.3057C142.836 82.2742 142.946 82.2077 143.032 82.1143C143.091 82.0319 143.13 81.937 143.145 81.837C143.161 81.737 143.154 81.6347 143.123 81.5381C143.085 81.4118 143.004 81.3026 142.894 81.2289C142.817 81.1798 142.764 81.1798 142.761 81.1868C142.757 81.1938 142.94 81.2922 142.996 81.5733C143.013 81.6487 143.012 81.7267 142.995 81.802C142.978 81.8772 142.945 81.9478 142.898 82.0089C142.833 82.0713 142.752 82.1145 142.665 82.134C142.577 82.1535 142.485 82.1485 142.4 82.1194C142.315 82.0904 142.239 82.0385 142.182 81.9694C142.125 81.9003 142.087 81.8167 142.074 81.7279C142.075 81.6512 142.092 81.5756 142.124 81.506C142.156 81.4363 142.203 81.3743 142.261 81.3238C142.458 81.1306 142.666 81.1868 142.666 81.1622Z" fill="#455A64"/>
<path d="M148.389 79.7287C148.389 79.7287 148.452 79.806 148.593 79.9149C148.791 80.0696 149.005 80.2038 149.23 80.3154C149.567 80.4846 149.921 80.6166 150.286 80.7089C150.731 80.8196 151.187 80.8774 151.645 80.8811C152.104 80.8768 152.561 80.8202 153.007 80.7124C153.373 80.619 153.727 80.4859 154.063 80.3154C154.288 80.2048 154.502 80.0718 154.7 79.9184C154.838 79.8095 154.912 79.7427 154.905 79.7322C154.898 79.7216 154.574 79.943 154.007 80.1995C153.675 80.3483 153.33 80.4659 152.976 80.5508C152.106 80.7547 151.201 80.7547 150.332 80.5508C149.977 80.4691 149.632 80.3514 149.301 80.1995C148.72 79.9395 148.41 79.7006 148.389 79.7287Z" fill="#455A64"/>
<path d="M134.556 81.2289C134.749 81.3135 134.957 81.3578 135.168 81.3589C136.19 81.4347 137.206 81.1444 138.033 80.5403C138.211 80.4283 138.365 80.2812 138.484 80.1081C137.354 80.9449 135.958 81.3432 134.556 81.2289V81.2289Z" fill="#455A64"/>
<path d="M162.877 146.043C162.852 145.994 162.831 145.944 162.814 145.892C162.782 145.79 162.737 145.632 162.687 145.424C162.589 145.01 162.455 144.395 162.293 143.597C161.976 142.006 161.54 139.701 161.019 136.844C159.963 131.135 158.59 123.24 157.059 114.516C155.528 105.792 154.13 97.9041 153.123 92.1805C152.606 89.3311 152.187 87.0227 151.898 85.417C151.747 84.6265 151.631 84.0116 151.546 83.5795C151.504 83.3757 151.473 83.2281 151.451 83.1016L151.413 82.94C151.413 82.94 151.413 82.9962 151.43 83.1051C151.448 83.2141 151.476 83.3827 151.508 83.5865C151.582 84.0151 151.684 84.6405 151.821 85.4276C152.096 87.0368 152.493 89.3487 152.986 92.2016L156.858 114.548C158.386 123.272 159.797 131.163 160.871 136.869C161.406 139.722 161.86 142.027 162.202 143.611C162.543 145.196 162.81 146.071 162.877 146.043Z" fill="#455A64"/>
<path d="M134.397 145.245C134.397 145.245 134.397 145.189 134.397 145.08C134.397 144.971 134.397 144.806 134.397 144.602C134.397 144.174 134.397 143.548 134.397 142.761C134.397 141.974 134.397 140.98 134.429 139.845C134.461 138.71 134.453 137.414 134.492 135.98C134.549 133.12 134.658 129.715 134.823 125.938C134.989 122.161 135.238 118.008 135.559 113.659C135.879 109.309 136.263 105.163 136.668 101.4C137.072 97.637 137.47 94.257 137.843 91.4181C138.019 90.0127 138.195 88.7197 138.354 87.5919C138.512 86.4641 138.646 85.4838 138.762 84.7073C138.878 83.9308 138.959 83.3019 139.019 82.8838C139.047 82.68 139.068 82.5324 139.082 82.406C139.085 82.3521 139.085 82.2982 139.082 82.2443C139.082 82.2443 139.082 82.297 139.051 82.406C139.019 82.5149 139.001 82.6765 138.97 82.8768C138.899 83.3019 138.801 83.9132 138.677 84.6968C138.554 85.4803 138.399 86.4535 138.237 87.5778C138.076 88.7022 137.885 89.9846 137.699 91.4041C137.312 94.2395 136.896 97.6195 136.484 101.382C136.073 105.145 135.692 109.288 135.362 113.645C135.031 118.001 134.805 122.151 134.64 125.942C134.475 129.733 134.387 133.127 134.348 135.991C134.32 137.421 134.32 138.714 134.309 139.855C134.299 140.997 134.309 141.964 134.309 142.772C134.309 143.58 134.309 144.177 134.309 144.613C134.309 144.816 134.309 144.964 134.309 145.091C134.309 145.217 134.397 145.245 134.397 145.245Z" fill="#455A64"/>
<path d="M111.292 47.4816L125.256 51.5503L133.077 46.9406L139.012 53.9676L127.941 58.753C127.159 59.0912 126.311 59.2521 125.459 59.2241C124.607 59.1962 123.772 58.9801 123.013 58.5914L109.285 51.5643L111.292 47.4816Z" fill="#FFBE9D"/>
<path d="M108.106 46.1395L106.378 45.2435L101.57 42.7454C101.484 42.7111 101.389 42.7042 101.299 42.7257C101.21 42.7471 101.128 42.7959 101.067 42.8653C101.006 42.9347 100.968 43.0212 100.959 43.113C100.949 43.2048 100.968 43.2973 101.013 43.3779L104.079 45.8935L102.784 46.3784C102.529 46.4763 102.319 46.6654 102.196 46.9089L101.517 48.2616C101.517 48.2616 100.735 48.346 100.658 48.8484C100.581 49.3508 101.165 49.53 101.165 49.53L101.017 50.1203C100.983 50.2564 100.979 50.3982 101.004 50.5362C101.028 50.6742 101.082 50.8055 101.161 50.9214V50.9214C101.904 51.227 102.495 49.6706 102.495 49.6706L103.291 49.7549L104.157 51.5116C105.259 51.7787 104.738 50.043 104.738 50.043L105.223 50.166C105.709 50.2854 105.963 50.6298 106.719 51.0162C107.476 51.4027 108.958 51.5398 108.958 51.5398L110.056 52.3479L113.4 47.7838L108.106 46.1395Z" fill="#FAFAFA"/>
<path d="M108.106 46.1395L108.201 46.1571L108.472 46.2343L109.528 46.5471L113.428 47.7346L113.509 47.7592L113.457 47.826L110.144 52.3935L110.095 52.4603L110.032 52.4111L108.93 51.6065H108.972C108.23 51.5497 107.501 51.3888 106.804 51.1287C106.454 50.9565 106.119 50.7543 105.804 50.5244C105.652 50.4141 105.485 50.3255 105.308 50.2608C105.128 50.2116 104.928 50.166 104.738 50.1168L104.843 50.0044C104.941 50.3275 104.981 50.6652 104.963 51.0022C104.959 51.0982 104.935 51.1923 104.894 51.2792C104.853 51.366 104.795 51.4439 104.723 51.5081C104.64 51.5599 104.546 51.5935 104.448 51.6068C104.351 51.6201 104.251 51.6129 104.157 51.5854H104.118L104.097 51.5433C103.822 50.9881 103.527 50.3979 103.227 49.7865L103.301 49.8392L102.597 49.7654H102.499L102.594 49.7092C102.483 49.9882 102.34 50.2535 102.168 50.4998C102.089 50.6367 101.983 50.7563 101.857 50.8511C101.731 50.946 101.586 51.0141 101.432 51.0514H101.306C101.263 51.0514 101.225 51.0303 101.182 51.0198H101.154H101.137C101.137 51.0198 101.059 50.9565 101.094 50.9881L101.063 50.9389L101.01 50.8335C100.947 50.6906 100.915 50.5363 100.915 50.3803C100.923 50.2313 100.949 50.0839 100.992 49.9411L101.094 49.53L101.161 49.6425C100.971 49.5936 100.803 49.4807 100.686 49.3227C100.631 49.2391 100.596 49.1439 100.584 49.0446C100.571 48.9453 100.582 48.8445 100.616 48.75C100.692 48.5717 100.833 48.4287 101.01 48.3495C101.172 48.2717 101.345 48.2207 101.524 48.1984L101.453 48.2476L101.883 47.3938L102.098 46.9757C102.163 46.8241 102.257 46.6868 102.376 46.5716C102.495 46.4571 102.638 46.3697 102.795 46.3152L103.22 46.1535L104.055 45.8373L104.03 45.9814L100.971 43.4552C100.918 43.3595 100.897 43.2496 100.91 43.1411C100.924 43.0326 100.971 42.931 101.045 42.8508C101.116 42.7745 101.209 42.7215 101.31 42.6989C101.412 42.6763 101.519 42.6852 101.615 42.7244V42.7244L106.381 45.2365L107.673 45.9392L108.008 46.1254C108.048 46.1442 108.086 46.1678 108.12 46.1957C108.079 46.1807 108.039 46.1631 108.001 46.143L107.649 45.9779L106.332 45.3173L101.541 42.8579C101.471 42.83 101.393 42.8241 101.319 42.841C101.245 42.858 101.178 42.8969 101.126 42.9527C101.073 43.0119 101.04 43.0859 101.032 43.1645C101.023 43.2432 101.039 43.3226 101.077 43.3919V43.3708L104.15 45.8795L104.259 45.9708L104.125 46.02L103.294 46.3398L102.868 46.5014C102.738 46.5511 102.618 46.6264 102.516 46.7227C102.414 46.8234 102.331 46.9426 102.274 47.0741L102.062 47.4922L101.633 48.346L101.612 48.3881H101.563C101.267 48.4303 100.908 48.5568 100.806 48.8238C100.783 48.8917 100.776 48.9638 100.784 49.0349C100.793 49.1059 100.817 49.1743 100.855 49.2349C100.948 49.3545 101.078 49.4408 101.225 49.4808L101.313 49.5054L101.291 49.5898L101.189 50.0008C101.148 50.1283 101.125 50.2606 101.119 50.3943C101.118 50.5248 101.145 50.654 101.196 50.7738L101.242 50.8581L101.267 50.9003C101.306 50.9284 101.218 50.8581 101.228 50.8652H101.249C101.278 50.8742 101.307 50.8813 101.337 50.8862H101.425C101.682 50.8141 101.899 50.6436 102.031 50.4119C102.193 50.1777 102.328 49.9253 102.432 49.66L102.46 49.5933H102.527H102.626L103.33 49.6671H103.382L103.403 49.7092C103.699 50.31 103.995 50.9003 104.269 51.466L104.21 51.4203C104.278 51.4411 104.351 51.4478 104.422 51.4399C104.493 51.4321 104.562 51.4099 104.625 51.3746C104.729 51.2736 104.789 51.1363 104.794 50.9916C104.811 50.6794 104.773 50.3665 104.681 50.0676L104.643 49.9165L104.79 49.9552C104.987 50.0043 105.171 50.0465 105.375 50.1027C105.567 50.1725 105.749 50.2695 105.913 50.3908C106.221 50.6148 106.547 50.8122 106.888 50.9811C107.567 51.2355 108.278 51.3939 109 51.4519H109.021H109.039L110.137 52.2635L110.025 52.2811C111.295 50.556 112.432 49.0171 113.369 47.7416L113.4 47.8365L109.528 46.5927L108.493 46.2414L108.226 46.15L108.106 46.1395Z" fill="#263238"/>
<path d="M104.864 50.0676C104.864 50.0851 104.481 50.0184 103.829 49.9235C103.178 49.8287 102.256 49.7092 101.172 49.6178H101.189C101.089 49.6182 100.991 49.5937 100.902 49.5467C100.814 49.4996 100.739 49.4315 100.683 49.3483C100.628 49.2651 100.594 49.1694 100.585 49.0699C100.575 48.9704 100.591 48.8702 100.63 48.7781C100.716 48.6002 100.846 48.4471 101.008 48.3334C101.17 48.2196 101.359 48.149 101.555 48.1281C101.971 48.0614 102.351 48.0403 102.724 47.9735C103.097 47.9068 103.456 47.84 103.78 47.7522C104.104 47.6643 104.435 47.573 104.727 47.4746C104.862 47.4381 104.988 47.3734 105.097 47.2849C105.14 47.2501 105.171 47.202 105.184 47.1481C105.198 47.0941 105.193 47.0372 105.171 46.9862C105.114 46.883 105.039 46.7912 104.949 46.7157L104.713 46.4768C104.565 46.3257 104.438 46.2027 104.329 46.1043C104.111 45.9111 103.977 45.8303 103.977 45.8162C104.125 45.8691 104.261 45.949 104.379 46.0516C104.521 46.1613 104.657 46.2786 104.787 46.403L105.033 46.6314C105.14 46.713 105.229 46.8159 105.294 46.9335C105.328 47.0097 105.337 47.0948 105.319 47.1764C105.302 47.2579 105.258 47.3317 105.195 47.3868C105.076 47.4939 104.934 47.5731 104.78 47.6187C104.484 47.7241 104.167 47.826 103.826 47.9173C103.484 48.0087 103.122 48.086 102.749 48.1492C102.376 48.2124 101.967 48.2441 101.584 48.3073C101.417 48.3216 101.257 48.3782 101.118 48.4717C100.98 48.5651 100.867 48.6924 100.792 48.8414C100.763 48.9052 100.75 48.975 100.755 49.0448C100.759 49.1146 100.78 49.1822 100.817 49.242C100.853 49.3018 100.903 49.3519 100.963 49.388C101.023 49.424 101.091 49.4451 101.161 49.4492V49.4492C102.252 49.5546 103.175 49.6951 103.822 49.8216C104.146 49.8849 104.403 49.9411 104.576 49.9868C104.676 49.9978 104.773 50.0251 104.864 50.0676V50.0676Z" fill="#263238"/>
<path d="M104.738 47.6046C104.448 47.7315 104.128 47.7741 103.815 47.7276C103.652 47.7214 103.489 47.7002 103.33 47.6643L103.414 47.6151C103.308 47.8541 103.224 48.0051 103.192 47.9946C103.161 47.9841 103.192 47.8119 103.266 47.5624L103.284 47.5062H103.351L103.826 47.5378C104.131 47.5288 104.437 47.5511 104.738 47.6046V47.6046Z" fill="#263238"/>
<path d="M136.263 41.8354L127.266 48.7254L133.573 57.0173L141.268 52.657L136.263 41.8354Z" fill="#FF725E"/>
<path d="M136.263 41.8354C137.565 41.0378 142.067 40.0505 142.067 40.0505L150.776 39.1054L158.33 42.5662L155.232 55.5416L157.949 80.0062L132.025 81.4116L136.263 41.8354Z" fill="#FF725E"/>
<path d="M151.064 52.6887H146.597V53.8903H151.064V52.6887Z" fill="#FAFAFA"/>
<path d="M151.071 53.9008H146.587V52.6816H151.071V53.9008ZM146.604 53.9008H151.054V52.7027H146.604V53.9008Z" fill="#263238"/>
<path d="M135.168 49.3438C135.062 48.6853 135.019 48.0183 135.038 47.3516C134.998 46.6861 135.017 46.0182 135.094 45.356C135.199 46.0145 135.243 46.6815 135.224 47.3481C135.265 48.0137 135.246 48.6815 135.168 49.3438V49.3438Z" fill="#263238"/>
<path d="M151.511 27.1981L150.557 40.6724C150.479 41.7307 150.003 42.7205 149.225 43.444C148.447 44.1676 147.425 44.5718 146.362 44.5759V44.5759C145.786 44.5737 145.218 44.4542 144.69 44.2247C144.163 43.9953 143.688 43.6608 143.295 43.2416C142.902 42.8225 142.598 42.3277 142.404 41.7874C142.209 41.2471 142.127 40.6728 142.162 40.0997C142.247 38.8173 142.321 37.7703 142.321 37.7703C142.321 37.7703 139.054 37.2608 139.015 34.0003C138.991 32.117 139.318 27.8411 139.596 24.57C139.686 23.5019 140.175 22.5066 140.966 21.7816C141.757 21.0566 142.792 20.6548 143.866 20.6559H145.841C146.647 20.7032 147.436 20.9113 148.161 21.2679C148.885 21.6246 149.531 22.1225 150.059 22.7323C150.588 23.3421 150.989 24.0515 151.238 24.8185C151.488 25.5855 151.58 26.3947 151.511 27.1981Z" fill="#FFBE9D"/>
<path d="M142.317 37.7211C143.826 37.7498 145.308 37.329 146.576 36.5125C146.576 36.5125 145.57 38.8595 142.31 38.5679L142.317 37.7211Z" fill="#EB996E"/>
<path d="M140.261 28.6879C140.259 28.8091 140.305 28.9263 140.389 29.0143C140.472 29.1023 140.587 29.1541 140.708 29.1587C140.768 29.1639 140.828 29.1572 140.884 29.1389C140.941 29.1205 140.994 29.091 141.039 29.0519C141.084 29.0129 141.12 28.9652 141.146 28.9117C141.173 28.8582 141.188 28.8 141.191 28.7406C141.192 28.619 141.145 28.5018 141.061 28.4139C140.977 28.326 140.862 28.2743 140.74 28.2698C140.681 28.265 140.622 28.2721 140.565 28.2906C140.509 28.3092 140.457 28.3389 140.412 28.3778C140.368 28.4168 140.331 28.4644 140.305 28.5176C140.279 28.5709 140.265 28.6287 140.261 28.6879V28.6879Z" fill="#263238"/>
<path d="M140.159 27.8376C140.216 27.9008 140.571 27.6373 141.071 27.6408C141.571 27.6443 141.94 27.8903 141.997 27.8306C142.053 27.7708 141.965 27.6935 141.803 27.5776C141.586 27.4276 141.328 27.3479 141.064 27.3492C140.802 27.3469 140.546 27.4295 140.335 27.5846C140.184 27.7006 140.131 27.813 140.159 27.8376Z" fill="#263238"/>
<path d="M145.087 28.6914C145.086 28.8126 145.133 28.9294 145.217 29.0167C145.301 29.104 145.416 29.155 145.538 29.1587C145.597 29.1634 145.656 29.1563 145.713 29.1378C145.769 29.1192 145.821 29.0896 145.866 29.0506C145.91 29.0116 145.947 28.9641 145.973 28.9108C145.999 28.8576 146.013 28.7997 146.017 28.7406C146.018 28.6196 145.972 28.5029 145.888 28.4151C145.805 28.3273 145.691 28.2752 145.57 28.2697C145.51 28.265 145.45 28.2722 145.393 28.2909C145.337 28.3096 145.284 28.3396 145.239 28.3789C145.194 28.4182 145.158 28.4661 145.132 28.5198C145.105 28.5734 145.09 28.6318 145.087 28.6914V28.6914Z" fill="#263238"/>
<path d="M145.094 27.9325C145.151 27.9922 145.506 27.7322 146.006 27.7322C146.506 27.7322 146.876 27.9852 146.932 27.9254C146.988 27.8657 146.9 27.7884 146.738 27.6689C146.521 27.5188 146.263 27.4402 145.999 27.4441C145.738 27.4425 145.483 27.5237 145.27 27.676C145.119 27.7954 145.066 27.9043 145.094 27.9325Z" fill="#263238"/>
<path d="M143.317 31.5233C143.053 31.4419 142.78 31.3935 142.504 31.3792C142.373 31.3792 142.254 31.3406 142.233 31.2527C142.22 31.1205 142.249 30.9876 142.317 30.8733C142.437 30.5641 142.564 30.2373 142.697 29.9C143.222 28.5122 143.605 27.3703 143.549 27.3492C143.493 27.3281 143.018 28.4349 142.493 29.8087C142.366 30.16 142.243 30.4797 142.141 30.7889C142.06 30.9431 142.036 31.1213 142.074 31.2914C142.093 31.3367 142.122 31.3772 142.158 31.41C142.195 31.4428 142.238 31.4671 142.285 31.4811C142.357 31.4997 142.43 31.5092 142.504 31.5092C142.773 31.5508 143.046 31.5555 143.317 31.5233Z" fill="#263238"/>
<path d="M144.964 26.1933C145.013 26.3303 145.513 26.267 146.105 26.3373C146.696 26.4076 147.161 26.5692 147.249 26.4462C147.284 26.3865 147.199 26.26 147.006 26.1265C146.749 25.9649 146.46 25.8638 146.158 25.831C145.857 25.7981 145.552 25.8343 145.267 25.9368C145.052 26.0211 144.943 26.13 144.964 26.1933Z" fill="#263238"/>
<path d="M140.163 26.8538C140.251 26.9697 140.599 26.8538 141.015 26.8538C141.43 26.8538 141.782 26.9276 141.863 26.8081C141.898 26.7519 141.842 26.6395 141.691 26.5306C141.484 26.4015 141.243 26.3366 140.999 26.3442C140.756 26.3517 140.52 26.4312 140.321 26.5727C140.173 26.6816 140.124 26.8011 140.163 26.8538Z" fill="#263238"/>
<path d="M150.41 29.647C150.466 29.6225 152.655 28.983 152.585 31.2141C152.515 33.4452 150.283 32.9111 150.283 32.8479C150.283 32.7846 150.41 29.647 150.41 29.647Z" fill="#FFBE9D"/>
<path d="M151.008 32.0257C151.008 32.0257 151.047 32.0538 151.114 32.0854C151.159 32.1046 151.208 32.1144 151.258 32.1144C151.308 32.1144 151.357 32.1046 151.402 32.0854C151.55 31.9992 151.672 31.8753 151.755 31.7265C151.839 31.5776 151.881 31.4092 151.877 31.2387C151.888 31.048 151.857 30.8573 151.786 30.68C151.767 30.6093 151.731 30.5443 151.681 30.4904C151.632 30.4366 151.57 30.3956 151.501 30.3708C151.457 30.3575 151.409 30.3601 151.367 30.378C151.324 30.396 151.29 30.4283 151.268 30.4692C151.237 30.5324 151.251 30.5781 151.237 30.5816C151.223 30.5851 151.191 30.543 151.212 30.4481C151.226 30.3945 151.259 30.3473 151.304 30.3146C151.367 30.2694 151.445 30.2505 151.522 30.2619C151.612 30.2826 151.695 30.3257 151.764 30.3871C151.833 30.4485 151.885 30.5263 151.916 30.6133C152.006 30.8101 152.046 31.0262 152.032 31.2422C152.036 31.4405 151.982 31.6356 151.875 31.8031C151.769 31.9705 151.615 32.103 151.434 32.1838C151.374 32.1996 151.311 32.2015 151.25 32.1893C151.189 32.1772 151.131 32.1512 151.082 32.1135C151.008 32.0784 150.983 32.0292 151.008 32.0257Z" fill="#EB996E"/>
<path d="M151.652 29.5697C151.44 29.5558 151.228 29.5998 151.039 29.6969C150.85 29.7941 150.691 29.9408 150.579 30.1214C150.431 30.4411 150.399 30.7995 150.255 31.1192C150.197 31.2849 150.086 31.4267 149.939 31.5222C149.792 31.6177 149.617 31.6613 149.442 31.6462C149.327 31.6083 149.224 31.5415 149.142 31.4522C149.061 31.363 149.004 31.2544 148.977 31.1368C148.929 30.899 148.929 30.6542 148.977 30.4165C149.107 29.3624 149.329 28.3435 149.371 27.2965C149.456 26.2427 149.226 25.1875 148.709 24.2643C148.447 23.8074 148.066 23.4297 147.606 23.1712C147.146 22.9126 146.625 22.7829 146.098 22.7957C145.394 22.8519 144.767 23.2138 144.077 23.3122C143.667 23.3652 143.249 23.3248 142.857 23.1939C142.464 23.0631 142.106 22.8453 141.81 22.5568C141.675 22.447 141.534 22.3449 141.388 22.2511C141.394 21.9992 141.475 21.7547 141.62 21.5484C142.989 20.2835 145.453 19.9322 147.252 20.3854C148.171 20.6113 149.029 21.0341 149.768 21.6245C150.506 22.2148 151.107 22.9586 151.529 23.8041C152.307 25.4941 152.078 27.8481 151.649 29.5557" fill="#263238"/>
<path d="M139.557 24.0641C139.557 24.0641 148.129 21.313 151.839 28.716C151.839 28.716 152.391 26.8608 152.391 25.87C152.391 25.206 151.994 21.2568 147.924 20.013C147.924 20.027 141.789 17.6765 139.557 24.0641Z" fill="#FF725E"/>
<path d="M146.925 24.2433C146.773 24.4884 146.566 24.6949 146.32 24.8465C146.074 24.998 145.796 25.0906 145.509 25.1168C145.221 25.1431 144.931 25.1023 144.662 24.9976C144.393 24.893 144.152 24.7273 143.957 24.5138C143.871 24.726 143.721 24.9061 143.528 25.029C143.334 25.152 143.107 25.2116 142.878 25.1996C142.649 25.1876 142.43 25.1046 142.25 24.9621C142.071 24.8197 141.94 24.6249 141.877 24.4049C141.645 24.6635 141.36 24.8706 141.043 25.0127C140.883 25.08 140.706 25.0968 140.536 25.061C140.366 25.0253 140.212 24.9385 140.092 24.8124C139.996 24.6642 139.95 24.4889 139.961 24.3125C139.971 24.136 140.039 23.9676 140.152 23.8322C140.384 23.5645 140.683 23.3632 141.018 23.2489C142.034 22.8028 143.15 22.6331 144.253 22.757C145.362 22.8894 146.377 23.4415 147.09 24.2995" fill="#263238"/>
<g opacity="0.4">
<path d="M139.557 24.0641C140.272 23.3158 141.25 22.8737 142.285 22.8308C144.813 22.7184 149.544 24.1379 151.839 28.716C151.839 28.716 152.391 26.8608 152.391 25.87C152.391 25.206 151.994 21.2568 147.924 20.013C147.924 20.027 141.789 17.6765 139.557 24.0641Z" fill="black"/>
</g>
<path d="M151.48 27.8481C150.179 25.9154 148.475 24.2865 146.485 23.0732C144.517 21.8435 141.258 20.6138 139.012 20.0341C138.347 19.8167 137.644 19.7437 136.949 19.8197C136.601 19.8652 136.273 20.0076 136.002 20.2307C135.731 20.4538 135.529 20.7485 135.418 21.0811C135.207 21.9243 136.706 23.2278 137.414 23.7408C138.105 24.2009 138.82 24.6232 139.557 25.0057C139.557 25.0057 139.54 23.4387 142.053 23.1154C145.471 22.6657 151.48 27.8481 151.48 27.8481Z" fill="#FF725E"/>
<path d="M144.45 21.4535C143.68 21.0428 142.848 20.7592 141.986 20.6138C142.193 20.4528 142.419 20.3171 142.659 20.2097C143.332 20.3219 143.984 20.5414 144.587 20.8597L144.45 21.4535Z" fill="#E0E0E0"/>
<path d="M151.008 29.7243C150.862 29.8527 150.707 29.9701 150.543 30.0757C150.191 30.3357 149.818 30.6027 149.42 30.8979C148.905 31.3102 148.355 31.6781 147.777 31.9976C148.246 31.5321 148.76 31.1143 149.311 30.7503C150.17 30.0968 150.952 29.6506 151.008 29.7243Z" fill="#EBEBEB"/>
<path d="M151.219 32.9779C150.491 34.0993 149.448 34.9816 148.22 35.5146C148.196 35.4654 148.963 35.0298 149.79 34.3271C150.617 33.6243 151.177 32.9427 151.219 32.9779Z" fill="#EBEBEB"/>
<path d="M138.934 31.8992C139.299 32.0082 139.673 32.0881 140.05 32.1381C141.669 32.0503 142.236 31.5057 144.88 32.0679C145.307 32.158 145.747 32.1711 146.179 32.1065C146.702 32.0312 147.23 31.9936 147.759 31.9941L148.269 35.5076C148.269 35.5076 145.133 38.2446 142.31 37.9389C138.656 37.5525 138.227 33.3011 138.934 31.8992Z" fill="#FAFAFA"/>
<path d="M138.934 31.8992C138.934 31.8992 138.903 31.9906 138.839 32.1557C138.762 32.405 138.711 32.6617 138.688 32.9216C138.61 33.887 138.786 34.8558 139.198 35.7325C139.482 36.332 139.912 36.8513 140.448 37.2433C141.078 37.6737 141.818 37.9173 142.581 37.946C143.428 37.9612 144.268 37.7946 145.045 37.4576C145.882 37.1127 146.677 36.673 147.414 36.1471C147.703 35.9398 147.984 35.7325 148.245 35.5076V35.5427C148.065 34.306 147.893 33.1219 147.738 32.0292L147.77 32.0573C147.145 32.0637 146.522 32.1106 145.904 32.1979C145.609 32.2182 145.312 32.2029 145.02 32.1522C144.739 32.0995 144.471 32.0362 144.204 31.9976C143.706 31.911 143.202 31.8687 142.697 31.8711C142.265 31.8841 141.834 31.9311 141.409 32.0116C141.022 32.0784 140.673 32.1346 140.353 32.1592C140.21 32.173 140.066 32.173 139.923 32.1592C139.793 32.1592 139.677 32.1135 139.571 32.0889C139.153 31.9906 138.934 31.9168 138.934 31.9168C139.734 32.1723 140.591 32.1869 141.398 31.9589C142.326 31.7682 143.283 31.7587 144.214 31.9308C144.482 31.966 144.756 32.0292 145.035 32.0819C145.321 32.1297 145.611 32.1438 145.9 32.1241C146.521 32.0336 147.146 31.9855 147.773 31.98H147.805V32.0081C147.967 33.1114 148.136 34.2954 148.315 35.5216C148.048 35.7465 147.766 35.9573 147.477 36.1646C146.734 36.6923 145.934 37.1343 145.091 37.4822C144.307 37.8207 143.46 37.9873 142.606 37.9706C141.879 37.9552 141.172 37.7362 140.565 37.3385C139.957 36.9409 139.474 36.3807 139.17 35.7219C138.761 34.8385 138.592 33.8629 138.681 32.8935C138.708 32.6318 138.763 32.3738 138.846 32.1241C138.896 31.973 138.934 31.8992 138.934 31.8992Z" fill="#263238"/>
<path d="M139.23 33.9546C140.455 34.5497 141.804 34.8469 143.167 34.8219C144.529 34.7968 145.866 34.4503 147.069 33.8105C146.618 34.417 146.051 34.9282 145.401 35.3143C144.63 35.7078 143.729 35.7289 142.859 35.7254C142.169 35.7736 141.476 35.663 140.835 35.4022C140.224 35.0381 139.706 34.5394 139.318 33.9441" fill="#E0E0E0"/>
<path d="M146.696 33.0657C146.369 33.1917 146.029 33.2801 145.682 33.3292C144.854 33.491 144.015 33.5873 143.172 33.6173C142.33 33.6453 141.486 33.6089 140.649 33.5084C140.3 33.4818 139.955 33.417 139.621 33.3152C139.974 33.3134 140.326 33.3346 140.677 33.3784C142.344 33.512 144.021 33.4531 145.675 33.2027C146.012 33.1353 146.353 33.0895 146.696 33.0657Z" fill="#E0E0E0"/>
<path d="M147.301 34.5308C147.111 34.8054 146.872 35.0435 146.597 35.2335C145.971 35.7336 145.249 36.1017 144.476 36.3154C143.703 36.5292 142.894 36.5843 142.099 36.4773C141.769 36.4496 141.447 36.3665 141.145 36.2314C141.145 36.2033 141.518 36.2981 142.116 36.3473C143.682 36.4889 145.246 36.0568 146.516 35.1316C147.02 34.7838 147.28 34.5098 147.301 34.5308Z" fill="#E0E0E0"/>
<path d="M147.358 33.7298C147.274 33.8047 147.179 33.8663 147.076 33.9125C146.81 34.0602 146.534 34.1882 146.249 34.2954C145.826 34.4583 145.39 34.5863 144.947 34.6784C144.404 34.7892 143.853 34.8503 143.299 34.8611C142.744 34.8667 142.189 34.8232 141.641 34.7311C141.196 34.6515 140.758 34.5339 140.332 34.3798C140.043 34.2843 139.762 34.1668 139.491 34.0284C139.387 33.9864 139.291 33.9283 139.205 33.8562C139.205 33.8281 139.645 34.0389 140.371 34.2603C140.796 34.3908 141.23 34.4918 141.669 34.5625C142.746 34.7301 143.844 34.7123 144.915 34.5098C145.352 34.4226 145.782 34.3052 146.203 34.1584C146.921 33.916 147.34 33.6911 147.358 33.7298Z" fill="#263238"/>
<path d="M144.732 33.7297C143.349 33.9939 141.924 33.935 140.568 33.5576C140.568 33.5049 141.5 33.6595 142.648 33.7016C143.795 33.7438 144.728 33.67 144.732 33.7297Z" fill="#263238"/>
<path d="M105.864 77.5292V49.0381H145.566V77.5292L124.524 77.7049L105.864 77.5292Z" fill="#FF725E"/>
<g opacity="0.4">
<path d="M145.57 49.0381H105.864V77.5292H145.57V49.0381Z" fill="black"/>
</g>
<path d="M124.524 77.7049L105.864 77.5292V49.0381H124.464L124.524 77.7049Z" fill="#FF725E"/>
<path d="M115.924 49.0381H113.45V53.9816H115.924V49.0381Z" fill="#263238"/>
<path d="M112.115 71.24H107.188V76.1589H112.115V71.24Z" fill="#FAFAFA"/>
<path d="M112.126 76.1695H107.177V71.2505H112.126V76.1695ZM107.198 76.1695H112.108V71.2505H107.198V76.1695Z" fill="#263238"/>
<path d="M154.859 55.5803L155.679 62.2103L143.359 69.5078L145.274 73.7241L159.276 68.0778C160.973 67.217 162.423 65.9451 162.304 64.0408L161.631 54.7616L154.859 55.5803Z" fill="#FFBE9D"/>
<path d="M158.33 42.5662C159.527 43.5918 160.322 45.0068 160.575 46.5611C161.047 49.1295 162.649 56.3111 162.649 56.3111L154.201 57.3089V55.3343C154.201 55.3062 153.412 51.6311 153.412 51.6311L154.986 46.5611L158.33 42.5662Z" fill="#FF725E"/>
<path d="M162.314 56.3427C162.125 56.392 161.932 56.4261 161.737 56.4446L160.156 56.6624C158.822 56.8381 156.988 57.07 154.933 57.3124L154.229 57.3968H154.134V57.2984C153.993 55.4187 153.838 53.7497 153.725 52.5481C153.669 51.9719 153.623 51.4941 153.588 51.1427C153.563 50.9705 153.553 50.7966 153.556 50.6227C153.605 50.7903 153.638 50.962 153.655 51.1357C153.708 51.466 153.771 51.9473 153.849 52.5411C153.993 53.7392 154.172 55.4116 154.317 57.2949L154.215 57.2105L154.919 57.1262C156.96 56.8803 158.791 56.6695 160.149 56.5289L161.737 56.3673C161.928 56.343 162.121 56.3348 162.314 56.3427Z" fill="#263238"/>
<path d="M157.636 43.03C157.636 43.0581 157.33 43.1881 156.862 43.4762C155.636 44.2297 154.684 45.3551 154.144 46.6876C153.937 47.1971 153.863 47.5344 153.831 47.5273C153.846 47.2238 153.91 46.9247 154.021 46.6419C154.511 45.2451 155.5 44.0778 156.798 43.3638C157.057 43.2066 157.34 43.0938 157.636 43.03V43.03Z" fill="#263238"/>
<path d="M143.169 69.1389L141.36 69.9646L140.585 69.666L136.636 69.42L134.172 69.9646L134.101 70.1052C134.101 71.4438 136.639 70.9168 137.417 71.1276C138.195 71.3384 137.488 72.9933 137.488 72.9933C137.488 72.9933 133.996 77.5362 133.387 78.6149C133.084 79.1595 133.183 79.4581 133.359 79.6233C133.449 79.7013 133.564 79.746 133.684 79.7498C133.804 79.7536 133.921 79.7164 134.017 79.6443L135.305 78.7344C135.305 78.7344 138.853 78.9416 139.096 78.8222C139.433 78.5686 139.725 78.2597 139.959 77.9087C141.641 76.2976 143.526 74.9111 145.566 73.7838L143.169 69.1389Z" fill="#FAFAFA"/>
<path d="M143.169 69.1389C143.169 69.1389 143.169 69.16 143.215 69.2092C143.26 69.2584 143.289 69.3462 143.341 69.4411L143.824 70.3476C144.25 71.1592 144.862 72.3187 145.622 73.7592L145.647 73.8119L145.594 73.84C143.561 74.981 141.683 76.3792 140.008 78C139.784 78.3441 139.504 78.6492 139.181 78.903C139.128 78.9372 139.068 78.9588 139.005 78.9662H138.846H138.53H137.9C137.051 78.9452 136.178 78.9065 135.284 78.8573L135.34 78.8398L134.513 79.4054L134.091 79.7076C134.011 79.7695 133.918 79.8122 133.819 79.8323C133.72 79.8524 133.618 79.8494 133.521 79.8235C133.42 79.7953 133.329 79.7405 133.258 79.6651C133.186 79.5897 133.136 79.4963 133.112 79.3949C133.076 79.2013 133.101 79.0013 133.183 78.8222C133.345 78.4955 133.539 78.1849 133.76 77.8946C134.985 76.1379 136.249 74.4865 137.428 72.9406V72.9581C137.525 72.7204 137.602 72.4747 137.657 72.2238C137.72 71.9889 137.73 71.7427 137.685 71.5035C137.662 71.3995 137.598 71.3087 137.509 71.2506C137.406 71.2032 137.295 71.1769 137.181 71.1733C136.939 71.1487 136.689 71.1522 136.446 71.1487C135.961 71.1638 135.477 71.1308 134.999 71.0503C134.759 71.0063 134.532 70.9064 134.337 70.7587C134.246 70.676 134.172 70.5752 134.122 70.4627C134.072 70.3502 134.046 70.2284 134.045 70.1052V70.1052V70.0876L134.116 69.9471V69.9154H134.151L136.615 69.3814H136.636L140.582 69.6484L141.356 69.9541H141.328L142.69 69.3568L143.042 69.2057L143.155 69.1635L143.035 69.2268L142.683 69.3954L141.356 70.0244H141.339L140.561 69.7327L136.611 69.5079H136.629L134.165 70.063L134.214 70.0244L134.144 70.1649V70.1298C134.145 70.2307 134.167 70.3303 134.209 70.4222C134.251 70.5141 134.311 70.5964 134.387 70.6638C134.561 70.7954 134.765 70.8823 134.981 70.9168C135.447 70.9939 135.918 71.0245 136.389 71.0081C136.636 71.0081 136.882 71.0081 137.139 71.0292C137.278 71.0347 137.415 71.0681 137.54 71.1276C137.667 71.2084 137.757 71.334 137.794 71.4789C137.849 71.7464 137.842 72.0228 137.773 72.2871C137.715 72.5487 137.635 72.805 137.533 73.053V73.053C136.358 74.6025 135.098 76.2468 133.876 78.0035C133.669 78.2869 133.488 78.5879 133.334 78.903C133.267 79.0479 133.245 79.2093 133.271 79.3668C133.287 79.4368 133.322 79.5013 133.372 79.5537C133.421 79.6061 133.483 79.6446 133.552 79.6654C133.624 79.6835 133.699 79.6846 133.771 79.6687C133.843 79.6529 133.91 79.6205 133.968 79.5741L134.394 79.2719L135.231 78.6817L135.256 78.6641H135.288C136.178 78.7133 137.048 78.7554 137.896 78.78H138.523H138.829H138.977C139.016 78.7756 139.053 78.7624 139.086 78.7414C139.388 78.4994 139.651 78.2113 139.864 77.8876V77.8876C141.553 76.2728 143.446 74.8849 145.496 73.7592L145.471 73.84L143.75 70.4284C143.553 70.0314 143.398 69.7257 143.285 69.4973L143.165 69.2514L143.169 69.1389Z" fill="#263238"/>
<path d="M138.642 75.6846C138.132 76.2419 137.587 76.7675 137.012 77.2587C136.551 77.6838 136.129 78.0633 135.823 78.3338C135.665 78.4923 135.489 78.6315 135.298 78.7484C135.775 78.1583 136.306 77.6147 136.886 77.1251C137.421 76.5869 138.009 76.1042 138.642 75.6846V75.6846Z" fill="#263238"/>
<path d="M139.716 76.563C139.441 77.0261 139.095 77.4434 138.691 77.7997C138.335 78.2033 137.927 78.5577 137.477 78.8538C137.8 78.4264 138.163 78.0311 138.561 77.6733C138.918 77.2755 139.304 76.9044 139.716 76.563V76.563Z" fill="#263238"/>
<path d="M96.3881 35.5954H85.0748V51.4238H96.3881V35.5954Z" fill="#455A64"/>
<path d="M96.3881 35.5954H85.0748V37.4295H96.3881V35.5954Z" fill="#263238"/>
<path d="M96.3881 49.5897H85.0748V51.4238H96.3881V49.5897Z" fill="#263238"/>
<path d="M94.1564 38.5573H87.2819V42.134H94.1564V38.5573Z" fill="#263238"/>
<path d="M92.3471 40.3457C92.3295 40.3457 92.3295 40.2016 92.2626 39.9627C92.1621 39.6232 91.9532 39.3259 91.6678 39.1159C91.4388 38.9453 91.1668 38.8416 90.8822 38.8163C90.5976 38.791 90.3116 38.8452 90.056 38.9727C89.8005 39.1003 89.5854 39.2962 89.4349 39.5386C89.2844 39.7811 89.2044 40.0605 89.2038 40.3457C89.2047 40.6577 89.3009 40.962 89.4795 41.2181C89.6581 41.4742 89.9106 41.6699 90.2034 41.7792C90.4448 41.8688 90.7046 41.8971 90.9596 41.8615C91.2146 41.826 91.4568 41.7276 91.6642 41.5754C91.9469 41.3649 92.1542 41.0693 92.2556 40.7321C92.3225 40.4897 92.3225 40.3457 92.3401 40.3457C92.3577 40.3457 92.3401 40.3808 92.3401 40.4511C92.3423 40.5516 92.3316 40.6519 92.3084 40.7497C92.2298 41.1173 92.0242 41.4457 91.7276 41.6773C91.5059 41.8525 91.2431 41.9683 90.9641 42.0138C90.6851 42.0593 90.399 42.0329 90.133 41.9373C89.8041 41.8201 89.5196 41.6042 89.3184 41.3193C89.1172 41.0343 89.0092 40.6943 89.0092 40.3457C89.0092 39.9971 89.1172 39.657 89.3184 39.372C89.5196 39.0871 89.8041 38.8712 90.133 38.754C90.3993 38.66 90.685 38.6346 90.9637 38.68C91.2424 38.7255 91.5052 38.8403 91.7276 39.014C92.0251 39.2463 92.2309 39.5761 92.3084 39.9451C92.3319 40.0429 92.3426 40.1433 92.3401 40.2438C92.3577 40.3105 92.3542 40.3457 92.3471 40.3457Z" fill="#455A64"/>
<path d="M88.0739 43.5113C88.0739 43.5642 88.0582 43.6158 88.0288 43.6597C87.9994 43.7036 87.9576 43.7378 87.9087 43.758C87.8598 43.7783 87.806 43.7836 87.7541 43.7732C87.7023 43.7629 87.6546 43.7375 87.6172 43.7002C87.5798 43.6628 87.5543 43.6152 87.544 43.5634C87.5336 43.5116 87.5389 43.458 87.5592 43.4092C87.5794 43.3604 87.6137 43.3187 87.6577 43.2893C87.7017 43.26 87.7534 43.2443 87.8063 43.2443C87.8773 43.2443 87.9453 43.2725 87.9955 43.3225C88.0457 43.3726 88.0739 43.4405 88.0739 43.5113Z" fill="#263238"/>
<path d="M90.0908 43.5113C90.0908 43.5642 90.0751 43.6158 90.0457 43.6597C90.0163 43.7036 89.9746 43.7378 89.9257 43.758C89.8768 43.7783 89.823 43.7836 89.7711 43.7732C89.7192 43.7629 89.6716 43.7375 89.6341 43.7002C89.5967 43.6628 89.5712 43.6152 89.5609 43.5634C89.5506 43.5116 89.5559 43.458 89.5761 43.4092C89.5964 43.3604 89.6307 43.3187 89.6747 43.2893C89.7187 43.26 89.7704 43.2443 89.8233 43.2443C89.8943 43.2443 89.9623 43.2725 90.0125 43.3225C90.0626 43.3726 90.0908 43.4405 90.0908 43.5113Z" fill="#263238"/>
<path d="M92.1078 43.5113C92.1078 43.5812 92.08 43.6482 92.0304 43.6977C91.9809 43.7471 91.9138 43.7748 91.8438 43.7748C91.7906 43.7755 91.7384 43.7604 91.6938 43.7313C91.6493 43.7022 91.6145 43.6606 91.5938 43.6116C91.5731 43.5627 91.5675 43.5087 91.5777 43.4566C91.5879 43.4045 91.6135 43.3566 91.6511 43.319C91.6887 43.2815 91.7367 43.256 91.7889 43.2458C91.8412 43.2356 91.8952 43.2412 91.9443 43.2618C91.9933 43.2825 92.035 43.3172 92.0642 43.3617C92.0933 43.4061 92.1085 43.4582 92.1078 43.5113V43.5113Z" fill="#263238"/>
<path d="M87.8063 45.4824C87.9541 45.4824 88.0739 45.3629 88.0739 45.2154C88.0739 45.0679 87.9541 44.9484 87.8063 44.9484C87.6586 44.9484 87.5388 45.0679 87.5388 45.2154C87.5388 45.3629 87.6586 45.4824 87.8063 45.4824Z" fill="#263238"/>
<path d="M90.0908 45.2154C90.0908 45.2682 90.0751 45.3198 90.0457 45.3637C90.0163 45.4077 89.9746 45.4419 89.9257 45.4621C89.8768 45.4823 89.823 45.4876 89.7711 45.4773C89.7192 45.467 89.6716 45.4416 89.6341 45.4042C89.5967 45.3669 89.5712 45.3193 89.5609 45.2675C89.5506 45.2157 89.5559 45.162 89.5761 45.1132C89.5964 45.0644 89.6307 45.0227 89.6747 44.9934C89.7187 44.964 89.7704 44.9484 89.8233 44.9484C89.8943 44.9484 89.9623 44.9765 90.0125 45.0266C90.0626 45.0767 90.0908 45.1446 90.0908 45.2154Z" fill="#263238"/>
<path d="M91.8438 45.4824C91.9916 45.4824 92.1113 45.3629 92.1113 45.2154C92.1113 45.0679 91.9916 44.9484 91.8438 44.9484C91.6961 44.9484 91.5763 45.0679 91.5763 45.2154C91.5763 45.3629 91.6961 45.4824 91.8438 45.4824Z" fill="#263238"/>
<path d="M87.8063 47.19C87.9541 47.19 88.0739 47.0705 88.0739 46.923C88.0739 46.7755 87.9541 46.6559 87.8063 46.6559C87.6586 46.6559 87.5388 46.7755 87.5388 46.923C87.5388 47.0705 87.6586 47.19 87.8063 47.19Z" fill="#263238"/>
<path d="M90.0908 46.923C90.0908 46.9758 90.0751 47.0274 90.0457 47.0713C90.0163 47.1152 89.9746 47.1495 89.9257 47.1697C89.8768 47.1899 89.823 47.1952 89.7711 47.1849C89.7192 47.1746 89.6716 47.1491 89.6341 47.1118C89.5967 47.0744 89.5712 47.0269 89.5609 46.9751C89.5506 46.9233 89.5559 46.8696 89.5761 46.8208C89.5964 46.772 89.6307 46.7303 89.6747 46.7009C89.7187 46.6716 89.7704 46.6559 89.8233 46.6559C89.8943 46.6559 89.9623 46.6841 90.0125 46.7342C90.0626 46.7842 90.0908 46.8522 90.0908 46.923Z" fill="#263238"/>
<path d="M91.8438 47.19C91.9916 47.19 92.1113 47.0705 92.1113 46.923C92.1113 46.7755 91.9916 46.6559 91.8438 46.6559C91.6961 46.6559 91.5763 46.7755 91.5763 46.923C91.5763 47.0705 91.6961 47.19 91.8438 47.19Z" fill="#263238"/>
<path d="M93.9418 46.1816C94.4764 46.1816 94.9098 45.749 94.9098 45.2154C94.9098 44.6818 94.4764 44.2492 93.9418 44.2492C93.4071 44.2492 92.9738 44.6818 92.9738 45.2154C92.9738 45.749 93.4071 46.1816 93.9418 46.1816Z" fill="#FF725E"/>
<path d="M80.2454 0.00701904H73.6982V152.051H80.2454V0.00701904Z" fill="#263238"/>
<path d="M73.6982 6.4227H8.50427V152.054H73.6982V6.4227Z" fill="#455A64"/>
<path d="M10.3313 0.00701904H4.29797V152.051H10.3313V0.00701904Z" fill="#263238"/>
<path d="M80.2455 0.00701904H4.29797V6.42269H80.2455V0.00701904Z" fill="#263238"/>
<path d="M80.256 0C80.256 0 80.1785 0.101892 80.0131 0.256486L79.3091 0.902973L76.9612 3.01108C76.0531 3.84378 75.24 4.60973 74.6838 5.19297C74.4613 5.41372 74.2532 5.64843 74.0608 5.89568C74.0116 5.96418 73.9669 6.03577 73.927 6.11C73.9094 6.1627 73.8988 6.19432 73.8918 6.19432C73.8848 6.19432 73.8918 6.1627 73.8918 6.09946C73.9175 6.01425 73.9541 5.93275 74.0009 5.85703C74.1727 5.58409 74.3695 5.32767 74.5888 5.09108C75.3004 4.31006 76.0511 3.56542 76.838 2.86C77.7532 2.0273 78.598 1.29649 79.2246 0.78C79.5344 0.52 79.7913 0.316216 79.9708 0.175676C80.0594 0.107263 80.155 0.0483784 80.256 0V0Z" fill="#455A64"/>
<path d="M10.3312 6.55623C10.296 6.58785 8.92321 5.15082 7.24769 3.34488C5.57217 1.53893 4.26273 0.0421731 4.29793 0.00703799C4.33313 -0.0280971 5.70593 1.41244 7.38145 3.21839C9.05697 5.02433 10.3699 6.52109 10.3312 6.55623Z" fill="#455A64"/>
<path d="M14.3265 72.6876H14.1434C12.9828 72.6876 12.042 73.6267 12.042 74.7851V90.0408C12.042 91.1993 12.9828 92.1384 14.1434 92.1384H14.3265C15.4871 92.1384 16.4279 91.1993 16.4279 90.0408V74.7851C16.4279 73.6267 15.4871 72.6876 14.3265 72.6876Z" fill="#263238"/>
<path d="M15.136 87.36C15.1388 87.2265 15.1053 87.0947 15.0392 86.9786C14.9731 86.8625 14.8768 86.7664 14.7605 86.7004C14.6442 86.6344 14.5122 86.601 14.3784 86.6037C14.2447 86.6064 14.1141 86.6452 14.0006 86.7158C13.8871 86.7864 13.7947 86.8864 13.7334 87.005C13.6721 87.1237 13.644 87.2567 13.6521 87.39C13.6603 87.5233 13.7043 87.6519 13.7796 87.7623C13.855 87.8727 13.9588 87.9607 14.08 88.017V88.8919C14.08 88.9795 14.1149 89.0635 14.177 89.1254C14.239 89.1874 14.3232 89.2222 14.4109 89.2222V89.2222C14.4547 89.2226 14.4981 89.2144 14.5386 89.198C14.5792 89.1817 14.6161 89.1574 14.6472 89.1267C14.6783 89.096 14.703 89.0594 14.7198 89.0191C14.7367 88.9788 14.7453 88.9356 14.7453 88.8919V88.0346C14.8668 87.9694 14.9676 87.8718 15.0366 87.7527C15.1056 87.6335 15.1401 87.4976 15.136 87.36V87.36Z" fill="#455A64"/>
<path d="M25.1399 79.2368H15.2944C14.6782 79.2368 14.1786 79.7354 14.1786 80.3505V80.4489C14.1786 81.064 14.6782 81.5627 15.2944 81.5627H25.1399C25.7561 81.5627 26.2557 81.064 26.2557 80.4489V80.3505C26.2557 79.7354 25.7561 79.2368 25.1399 79.2368Z" fill="#263238"/>
<path d="M18.568 81.6294C18.4465 81.6548 18.3224 81.6654 18.1984 81.6611L17.1987 81.7032C16.7007 81.7286 16.2014 81.7122 15.7062 81.654C15.4081 81.6198 15.1158 81.5465 14.8368 81.4362C14.5236 81.3146 14.2581 81.0952 14.08 80.8108C13.9967 80.6608 13.9493 80.4937 13.9414 80.3225C13.9334 80.1512 13.9652 79.9805 14.0342 79.8235C14.1059 79.6754 14.2214 79.5527 14.3651 79.4721C14.4957 79.4 14.6338 79.3423 14.7769 79.3C15.2615 79.1605 15.7657 79.1012 16.2694 79.1243C16.6918 79.1243 17.0333 79.1454 17.2691 79.1594C17.3875 79.1596 17.5055 79.1726 17.6211 79.1981C17.1673 79.2429 16.7112 79.2605 16.2553 79.2508C15.7678 79.2487 15.2827 79.3186 14.8157 79.4581C14.6839 79.4846 14.5594 79.5388 14.4502 79.6169C14.3409 79.695 14.2496 79.7954 14.1821 79.9113C14.126 80.0427 14.101 80.1852 14.1089 80.3277C14.1169 80.4703 14.1575 80.6091 14.2278 80.7335C14.3805 80.987 14.6115 81.1843 14.8861 81.2957C15.1485 81.4038 15.4244 81.4759 15.7062 81.51C16.1927 81.5752 16.6832 81.6057 17.1741 81.6013C17.6386 81.5686 18.1051 81.578 18.568 81.6294Z" fill="#455A64"/>
<path d="M39.3043 39.0316C39.3043 39.0316 39.3043 38.9895 39.3043 38.9122C39.3043 38.8349 39.3043 38.7224 39.3043 38.5784C39.3043 38.2797 39.3043 37.8476 39.3043 37.2854C39.3043 36.1541 39.3043 34.5062 39.2832 32.4157C39.2832 28.2381 39.2585 22.3038 39.2409 15.2451L39.3219 15.326H19.9619L20.0534 15.2346C20.0534 24.0184 20.0534 32.2154 20.0534 39.0211L19.976 38.9438L33.9997 38.9824L37.9245 39.0035H38.9629H39.3149H38.9629H37.9385L34.0313 39.0246L19.9513 39.0633H19.8739V38.9895C19.8739 32.1838 19.8739 24.0008 19.8739 15.203V15.1116H19.9689H39.3289H39.4134V15.1924C39.4134 22.2722 39.3817 28.2276 39.3712 32.4087C39.3712 34.4887 39.3712 36.133 39.3501 37.2608C39.3501 37.816 39.3501 38.2411 39.3501 38.5362C39.3501 38.6768 39.3501 38.7857 39.3501 38.863C39.3428 38.9211 39.3274 38.9778 39.3043 39.0316V39.0316Z" fill="#263238"/>
<path d="M36.1223 36.0873C36.1196 36.0569 36.1196 36.0263 36.1223 35.9959C36.1223 35.9292 36.1223 35.8449 36.1223 35.7395C36.1223 35.504 36.1223 35.1738 36.1223 34.7451C36.1223 33.8738 36.1223 32.6124 36.1012 31.0173C36.1012 27.8235 36.0765 23.2876 36.0589 17.954L36.1434 18.0349H22.8132C22.792 18.0349 22.9856 17.8627 22.9047 17.947V19.2013C22.9047 19.6195 22.9047 20.0376 22.9047 20.4522V22.9116C22.9047 24.5313 22.9047 26.1089 22.9047 27.6338C22.9047 30.6835 22.9047 33.5259 22.9047 36.0662L22.8308 35.9889L32.5002 36.0311H35.1965H35.9005H36.1504H35.9146H35.2106L32.5319 36.0522L22.8132 36.0908H22.7357V36.017C22.7357 33.4697 22.7357 30.6273 22.7357 27.5846C22.7357 26.0597 22.7357 24.4822 22.7357 22.8624V17.9611L22.8308 17.8662H36.161H36.242V17.9505C36.2244 23.3227 36.2103 27.8622 36.1997 31.07C36.1997 32.6546 36.1997 33.9089 36.1786 34.7768C36.1786 35.1984 36.1786 35.5216 36.1786 35.7535V36.003C36.1223 36.0592 36.1223 36.0873 36.1223 36.0873Z" fill="#263238"/>
<path d="M39.3043 89.2432C39.3043 89.2432 39.3043 89.1659 39.3043 89.0219C39.3043 88.8778 39.3043 88.6705 39.3043 88.3824C39.3043 87.8167 39.3043 86.977 39.3043 85.923C39.3043 83.7657 39.3043 80.6281 39.2797 76.6859C39.2797 68.8016 39.255 57.713 39.241 44.7867L39.3254 44.8746H19.9654L20.057 44.7832C20.057 62.1013 20.057 77.8103 20.0323 89.2538L19.9654 89.1905L34.1018 89.2257H37.9738H38.9805H39.3325C39.3325 89.2257 39.2234 89.2257 38.9805 89.2257H37.9878L34.1475 89.2432L19.969 89.2784H19.9056V89.2432C19.9056 77.7962 19.9056 62.0908 19.8774 44.7727V44.6813H39.4029V44.7692C39.3853 57.7024 39.3712 68.8262 39.3606 76.7422C39.3606 80.6808 39.343 83.8113 39.3395 85.9616C39.3395 87.0157 39.3395 87.8554 39.3395 88.4211C39.3395 88.6951 39.3395 88.9059 39.3395 89.05C39.3395 89.194 39.3043 89.2432 39.3043 89.2432Z" fill="#263238"/>
<path d="M36.1223 86.7838C36.1223 86.7838 36.1223 86.7135 36.1223 86.587C36.1223 86.4605 36.1223 86.2603 36.1223 86.0143C36.1223 85.5049 36.1223 84.767 36.1223 83.8114C36.1223 81.8895 36.1223 79.0997 36.0977 75.6073C36.0977 68.6224 36.073 58.8162 36.0554 47.5168L36.1469 47.6046H22.7921L22.8836 47.5132C22.8836 63.2116 22.8589 77.3008 22.8519 86.7803L22.7921 86.7205L32.5706 86.7522H35.2001H35.8829H36.1223H35.897H35.2247L32.6058 86.7697L22.7921 86.8013H22.7287V86.7838C22.7287 77.2973 22.7111 63.2151 22.697 47.5168V47.4324H36.2103V47.5203C36.1927 58.8443 36.1786 68.6716 36.1681 75.6705C36.1681 79.1559 36.1505 81.9387 36.1434 83.8535C36.1434 84.8022 36.1434 85.5365 36.1434 86.0389C36.1434 86.2814 36.1434 86.4676 36.1434 86.6011C36.1434 86.7346 36.1223 86.7838 36.1223 86.7838Z" fill="#263238"/>
<path d="M39.3043 145.558C39.3043 145.558 39.3043 145.481 39.3043 145.336C39.3043 145.192 39.3043 144.985 39.3043 144.697C39.3043 144.131 39.3043 143.292 39.3043 142.238C39.3043 140.08 39.3043 136.943 39.2797 133.001C39.2797 125.116 39.255 114.01 39.241 101.101L39.3254 101.189H19.9654L20.057 101.098C20.057 118.416 20.057 134.125 20.0323 145.568L19.9654 145.502L34.1018 145.54H37.9738H38.9805H39.3325H38.9805H37.9878L34.1475 145.558L19.969 145.593H19.9056V145.526C19.9056 134.079 19.9056 118.374 19.8774 101.056V100.964H39.4029V101.052C39.3853 113.985 39.3712 125.109 39.3606 133.025C39.3606 136.964 39.343 140.094 39.3395 142.245C39.3395 143.299 39.3395 144.138 39.3395 144.704C39.3395 144.978 39.3395 145.189 39.3395 145.333C39.3395 145.477 39.3043 145.558 39.3043 145.558Z" fill="#263238"/>
<path d="M36.1223 143.095C36.1223 143.095 36.1223 143.025 36.1223 142.895C36.1223 142.765 36.1223 142.571 36.1223 142.325C36.1223 141.816 36.1223 141.078 36.1223 140.122C36.1223 138.201 36.1223 135.411 36.0977 131.918C36.0977 124.934 36.073 115.127 36.0554 103.828L36.1469 103.916H22.7921L22.8836 103.824C22.8836 119.523 22.8589 133.612 22.8519 143.091L22.7921 143.032L32.5706 143.063H35.2001H35.8829H36.1223H35.897H35.2247L32.6058 143.081L22.7921 143.112H22.7287V143.053C22.7287 133.566 22.7111 119.484 22.697 103.786V103.694H36.2103V103.782C36.1927 115.106 36.1786 124.934 36.1681 131.932C36.1681 135.418 36.1505 138.201 36.1434 140.115C36.1434 141.064 36.1434 141.798 36.1434 142.301C36.1434 142.543 36.1434 142.729 36.1434 142.863C36.1434 142.996 36.1223 143.095 36.1223 143.095Z" fill="#263238"/>
<path d="M23.1018 36.0768C22.593 36.6112 22.0396 37.1013 21.4474 37.5419C20.8973 38.0277 20.3087 38.4684 19.6874 38.8595C20.1988 38.3289 20.7521 37.8401 21.3418 37.3978C21.8924 36.9116 22.481 36.4698 23.1018 36.0768Z" fill="#263238"/>
<path d="M39.424 38.6803C38.8102 38.3735 38.2397 37.9872 37.7273 37.5313C37.1788 37.1194 36.6845 36.6401 36.256 36.1048C36.2947 36.0662 36.96 36.6811 37.8435 37.3873C38.727 38.0935 39.4451 38.6486 39.424 38.6803Z" fill="#263238"/>
<path d="M39.0193 15.8108C38.5719 16.2487 38.0826 16.6417 37.5585 16.9843C37.0705 17.3774 36.5446 17.7211 35.9885 18.0103C36.436 17.5726 36.9253 17.1795 37.4493 16.8368C37.9384 16.4452 38.4641 16.1016 39.0193 15.8108Z" fill="#263238"/>
<path d="M22.8448 17.6519C22.2722 17.4267 21.7333 17.124 21.2432 16.7524C20.7212 16.4288 20.2473 16.0338 19.8352 15.5789C20.3599 15.8908 20.8664 16.2322 21.3523 16.6014C21.8702 16.9217 22.3686 17.2725 22.8448 17.6519Z" fill="#263238"/>
<path d="M22.7216 47.5624C21.4947 46.8573 20.5319 45.7717 19.9795 44.4705C20.0288 44.4459 20.4723 45.2681 21.2361 46.1184C22 46.9686 22.7532 47.5168 22.7216 47.5624Z" fill="#263238"/>
<path d="M39.0721 44.7446C38.6581 45.229 38.1984 45.6726 37.6993 46.0692C37.241 46.5118 36.7412 46.9095 36.2068 47.2568C36.6218 46.7733 37.0814 46.3298 37.5796 45.9322C38.0373 45.4889 38.5372 45.0912 39.0721 44.7446V44.7446Z" fill="#263238"/>
<path d="M22.7146 86.9735C22.7428 87.0192 22.1022 87.483 21.3735 88.1294C20.6449 88.7759 20.0993 89.3557 20.0605 89.3205C20.3791 88.8139 20.7814 88.3649 21.2503 87.9924C21.6807 87.5769 22.1751 87.2329 22.7146 86.9735V86.9735Z" fill="#263238"/>
<path d="M38.7623 89.194C37.825 88.502 36.9657 87.7103 36.1997 86.833C36.6847 87.1576 37.1352 87.5308 37.5443 87.9468C37.9922 88.3196 38.4003 88.7376 38.7623 89.194V89.194Z" fill="#263238"/>
<path d="M23.0419 104.351C22.4587 103.877 21.9148 103.357 21.4157 102.795C20.8748 102.274 20.3758 101.711 19.9232 101.112C20.5065 101.586 21.0503 102.107 21.5495 102.668C22.0937 103.186 22.5929 103.749 23.0419 104.351Z" fill="#263238"/>
<path d="M39.241 100.975C38.79 101.531 38.2944 102.049 37.759 102.524C37.2641 103.038 36.726 103.508 36.1504 103.93C37.0947 102.855 38.1286 101.862 39.241 100.961V100.975Z" fill="#263238"/>
<path d="M22.3978 142.866C21.6873 143.833 20.8794 144.724 19.9866 145.526C20.697 144.56 21.505 143.668 22.3978 142.866V142.866Z" fill="#263238"/>
<path d="M38.984 145.558C38.4334 145.232 37.928 144.835 37.481 144.377C36.9967 143.965 36.5673 143.493 36.2032 142.972C36.6977 143.372 37.1678 143.802 37.6112 144.258C38.0946 144.663 38.553 145.097 38.984 145.558Z" fill="#263238"/>
<path d="M65.0532 39.0316C65.0532 39.0316 65.0532 38.9895 65.0532 38.9122C65.0532 38.8349 65.0532 38.7224 65.0532 38.5784C65.0532 38.2797 65.0532 37.8476 65.0532 37.2854C65.0532 36.1541 65.0532 34.5062 65.032 32.4157C65.032 28.2381 65.0074 22.3038 64.9898 15.2451L65.0708 15.326H45.7284L45.8199 15.2346C45.8199 24.0184 45.8199 32.2154 45.8199 39.0211L45.7424 38.9438L59.7696 38.9824L63.6909 39.0035H64.7469H65.0989H64.7469H63.7226L59.8154 39.0246L45.7354 39.0633H45.658V38.9895C45.658 32.1838 45.658 24.0008 45.658 15.203V15.1116H45.753H65.0954H65.1799V15.1924C65.1623 22.2722 65.1482 28.2276 65.1376 32.4087C65.1376 34.4887 65.12 36.133 65.1165 37.2608C65.1165 37.816 65.1165 38.2411 65.1165 38.5362C65.1165 38.6768 65.1165 38.7857 65.1165 38.863C65.1037 38.922 65.0824 38.9788 65.0532 39.0316V39.0316Z" fill="#263238"/>
<path d="M61.8711 36.0873C61.8683 36.0569 61.8683 36.0263 61.8711 35.9959C61.8711 35.9292 61.8711 35.8449 61.8711 35.7395C61.8711 35.504 61.8711 35.1738 61.8711 34.7451C61.8711 33.8738 61.8711 32.6124 61.8499 31.0173C61.8499 27.8235 61.8253 23.2876 61.8077 17.954L61.8922 18.0349H48.5619C48.5408 18.0349 48.7344 17.8627 48.6535 17.947V19.2013C48.6535 19.6195 48.6535 20.0376 48.6535 20.4522V22.9116C48.6535 24.5313 48.6535 26.1089 48.6535 27.6338C48.6535 30.6835 48.6535 33.5259 48.6535 36.0662L48.5795 35.9889L58.249 36.0311H60.9453H61.6493H61.8992H61.6634H60.9594L58.2807 36.0522L48.5619 36.0908H48.4845V36.017C48.4845 33.4697 48.4845 30.6273 48.4845 27.5846C48.4845 26.0597 48.4845 24.4822 48.4845 22.8624V20.403C48.4845 19.9884 48.4845 19.5703 48.4845 19.1522V17.9611L48.5795 17.8662H61.9098H61.952V17.9505C61.9344 23.3227 61.9203 27.8622 61.9098 31.07C61.9098 32.6546 61.9098 33.9089 61.8887 34.7768C61.8887 35.1984 61.8887 35.5216 61.8887 35.7535V36.003C61.8711 36.0592 61.8711 36.0873 61.8711 36.0873Z" fill="#263238"/>
<path d="M65.0531 89.2432C65.0531 89.2432 65.0531 89.1659 65.0531 89.0219C65.0531 88.8778 65.0531 88.6705 65.0531 88.3824C65.0531 87.8167 65.0531 86.977 65.0531 85.923C65.0531 83.7657 65.0531 80.6281 65.0284 76.6859C65.0284 68.8016 65.0038 57.713 64.9897 44.7867L65.0742 44.8746H45.7142L45.8057 44.7832C45.8057 62.1013 45.7881 77.8103 45.7811 89.2538L45.7142 89.1905L59.8505 89.2257H63.7225H64.7293H65.0813C65.0813 89.2257 64.9721 89.2257 64.7468 89.2257L63.712 89.2432L59.8716 89.2608L45.6931 89.2959H45.6297V89.2432C45.6297 77.7962 45.6121 62.0908 45.6016 44.7727V44.6813H65.127V44.7692C65.1094 57.7024 65.0953 68.8262 65.0848 76.7422C65.0848 80.6808 65.0672 83.8113 65.0636 85.9616C65.0636 87.0157 65.0636 87.8554 65.0636 88.4211C65.0636 88.6951 65.0636 88.9059 65.0636 89.05C65.0636 89.194 65.0531 89.2432 65.0531 89.2432Z" fill="#263238"/>
<path d="M61.8711 86.7838C61.8711 86.7838 61.8711 86.7135 61.8711 86.587C61.8711 86.4605 61.8711 86.2603 61.8711 86.0143C61.8711 85.5049 61.8711 84.767 61.8711 83.8114C61.8711 81.8895 61.8711 79.0997 61.8464 75.6073C61.8464 68.6224 61.8218 58.8162 61.8042 47.5168L61.8957 47.6046H48.5408L48.6324 47.5132C48.6324 63.2116 48.6077 77.3008 48.6007 86.7803L48.5408 86.7205L58.3194 86.7522H60.9488H61.6317H61.8711H61.6458H60.9735L58.3581 86.7697L48.5408 86.8013H48.4775V86.7838C48.4775 77.2973 48.4599 63.2151 48.4458 47.5168V47.4324H61.952V47.5203C61.952 58.8443 61.9204 68.6716 61.9098 75.6705C61.9098 79.1559 61.9098 81.9387 61.8852 83.8535C61.8852 84.8022 61.8852 85.5365 61.8852 86.0389C61.8852 86.2814 61.8852 86.4676 61.8852 86.6011C61.8852 86.7346 61.8711 86.7838 61.8711 86.7838Z" fill="#263238"/>
<path d="M65.0531 145.558C65.0531 145.558 65.0531 145.481 65.0531 145.336C65.0531 145.192 65.0531 144.985 65.0531 144.697C65.0531 144.131 65.0531 143.292 65.0531 142.238C65.0531 140.08 65.0531 136.943 65.0284 133.001C65.0284 125.116 65.0038 114.01 64.9897 101.101L65.0742 101.189H45.7142L45.8057 101.098C45.8057 118.416 45.7881 134.125 45.7811 145.568L45.7142 145.502L59.8505 145.54H63.7225H64.7292H65.0812H64.7468H63.7542L59.9139 145.558L45.7353 145.593H45.672V145.526C45.672 134.079 45.6544 118.374 45.6438 101.056V100.964H65.1692V101.052C65.1516 113.985 65.1376 125.109 65.127 133.025C65.127 136.964 65.1094 140.094 65.1059 142.245C65.1059 143.299 65.1059 144.138 65.1059 144.704C65.1059 144.978 65.1059 145.189 65.1059 145.333C65.1059 145.477 65.0531 145.558 65.0531 145.558Z" fill="#263238"/>
<path d="M61.8711 143.095C61.8711 143.095 61.8711 143.025 61.8711 142.895C61.8711 142.765 61.8711 142.571 61.8711 142.325C61.8711 141.816 61.8711 141.078 61.8711 140.122C61.8711 138.201 61.8711 135.411 61.8464 131.918C61.8464 124.934 61.8218 115.127 61.8042 103.828L61.8957 103.916H48.5408L48.6324 103.824C48.6324 119.523 48.6077 133.612 48.6007 143.091L48.5408 143.032L58.3194 143.063H60.9488H61.6317H61.8711H61.6458H60.9735L58.3581 143.081L48.5408 143.112H48.4775V143.053C48.4775 133.566 48.4599 119.484 48.4458 103.786V103.694H61.952V103.782C61.952 115.106 61.9204 124.934 61.9098 131.932C61.9098 135.418 61.9098 138.201 61.8852 140.115C61.8852 141.064 61.8852 141.798 61.8852 142.301C61.8852 142.543 61.8852 142.729 61.8852 142.863C61.8852 142.996 61.8711 143.095 61.8711 143.095Z" fill="#263238"/>
<path d="M48.8506 36.0768C48.3418 36.6112 47.7883 37.1013 47.1962 37.5419C46.646 38.0277 46.0575 38.4684 45.4362 38.8595C45.9476 38.3289 46.5009 37.8401 47.0906 37.3978C47.6412 36.9116 48.2297 36.4698 48.8506 36.0768Z" fill="#263238"/>
<path d="M65.1658 38.6803C64.552 38.3735 63.9816 37.9872 63.4692 37.5313C62.9206 37.1194 62.4263 36.6401 61.9978 36.1048C62.0365 36.0662 62.7018 36.6811 63.5853 37.3873C64.4688 38.0935 65.194 38.6486 65.1658 38.6803Z" fill="#263238"/>
<path d="M64.768 15.8108C64.3207 16.2487 63.8314 16.6417 63.3072 16.9843C62.8193 17.3774 62.2934 17.7211 61.7373 18.0103C62.1858 17.5737 62.6749 17.1807 63.1981 16.8368C63.6871 16.4452 64.2129 16.1016 64.768 15.8108Z" fill="#263238"/>
<path d="M48.5936 17.6519C48.021 17.4267 47.4821 17.124 46.992 16.7524C46.47 16.4288 45.9961 16.0338 45.584 15.5789C46.1087 15.8908 46.6152 16.2322 47.1011 16.6014C47.619 16.9217 48.1174 17.2725 48.5936 17.6519Z" fill="#263238"/>
<path d="M48.4704 47.5624C47.2434 46.8573 46.2807 45.7717 45.7283 44.4705C45.7776 44.4459 46.2211 45.2681 46.9849 46.1184C47.7488 46.9686 48.502 47.5168 48.4704 47.5624Z" fill="#263238"/>
<path d="M64.8138 44.7446C64.3998 45.229 63.9401 45.6726 63.441 46.0692C62.9839 46.5117 62.4852 46.9093 61.952 47.2568C62.367 46.7733 62.8267 46.3298 63.3248 45.9322C63.7814 45.4891 64.2801 45.0914 64.8138 44.7446V44.7446Z" fill="#263238"/>
<path d="M48.4634 86.9735C48.4916 87.0192 47.8509 87.483 47.1223 88.1294C46.3936 88.7759 45.848 89.3557 45.8093 89.3205C46.1279 88.8139 46.5302 88.3649 46.9991 87.9924C47.4295 87.5769 47.9239 87.2329 48.4634 86.9735Z" fill="#263238"/>
<path d="M64.511 89.194C63.5737 88.502 62.7145 87.7103 61.9485 86.833C62.4335 87.1576 62.884 87.5308 63.2931 87.9468C63.741 88.3196 64.1491 88.7376 64.511 89.194Z" fill="#263238"/>
<path d="M48.7907 104.351C48.2075 103.877 47.6636 103.357 47.1645 102.795C46.6236 102.274 46.1246 101.711 45.672 101.112C46.2562 101.585 46.8001 102.106 47.2982 102.668C47.8424 103.186 48.3417 103.749 48.7907 104.351V104.351Z" fill="#263238"/>
<path d="M64.9897 100.975C64.54 101.532 64.0443 102.05 63.5078 102.524C63.0129 103.038 62.4747 103.508 61.8992 103.93C62.8435 102.855 63.8773 101.862 64.9897 100.961V100.975Z" fill="#263238"/>
<path d="M48.1466 142.866C47.4361 143.833 46.6281 144.724 45.7354 145.526C46.0646 145.02 46.4456 144.549 46.8723 144.121C47.2548 143.662 47.6816 143.242 48.1466 142.866V142.866Z" fill="#263238"/>
<path d="M64.7328 145.558C64.1822 145.232 63.6768 144.835 63.2298 144.377C62.7455 143.965 62.3161 143.493 61.952 142.972C62.4464 143.372 62.9166 143.802 63.36 144.258C63.8433 144.663 64.3018 145.097 64.7328 145.558Z" fill="#263238"/>
<path d="M103.02 121.072H59.8435V152.054H103.02V121.072Z" fill="#FF725E"/>
<path d="M71.4243 121.072C71.4842 121.072 71.4243 127.614 71.4243 127.614H68.2281V121.072H71.4243Z" fill="#263238"/>
<g opacity="0.4">
<path d="M81.4316 152.054H103.02V121.072H81.4316V152.054Z" fill="black"/>
</g>
<path d="M66.9399 145.99H61.16V150.073H66.9399V145.99Z" fill="#FAFAFA"/>
<path d="M66.9469 150.08H61.1494V145.979H66.9469V150.08ZM61.167 150.08H66.9293V145.997H61.167V150.08Z" fill="#263238"/>
<path d="M70.8963 145.99H68.0063V150.073H70.8963V145.99Z" fill="#FAFAFA"/>
<path d="M70.9034 150.08H67.9958V145.979H70.9034V150.08ZM68.017 150.08H70.8858V145.997H68.017V150.08Z" fill="#263238"/>
</svg>
