<svg width="152" height="70" viewBox="0 0 152 70" fill="none" xmlns="http://www.w3.org/2000/svg">
<path d="M130.013 21.6677C126.029 24.4248 121.639 27.4203 120.33 32.0485C119.654 32.2527 118.896 32.486 118.036 32.7656C114.633 33.8676 110.036 35.5505 104.994 37.5595C108.016 35.5464 110.771 33.1585 113.193 30.4529C116.215 27.2931 118.234 23.3103 118.997 19.0056C114.636 19.971 110.734 22.392 107.932 25.8704C105.131 29.3488 103.597 33.6773 103.583 38.1436C98.7183 40.1587 94.3918 42.1463 91.2681 43.706C91.1597 43.7556 91.0585 43.8019 90.9573 43.8482C93.8426 41.366 97.4439 37.0094 98.9038 33.6846C100.383 30.1637 101.586 26.5332 102.503 22.826C98.3573 24.4059 94.897 27.3898 92.7246 31.2581C90.5523 35.1264 89.8055 39.6341 90.6142 43.9964C87.6963 45.4708 85.9791 46.4747 86.0452 46.6193C86.1113 46.7638 88.2532 45.924 91.6535 44.4912C92.1378 44.2697 92.6582 44.0317 93.2129 43.8304C96.0638 47.1589 98.4162 48.5566 102.794 49.491C107.172 50.4254 111.947 50.3919 116.551 50.3311C114.4 47.1536 111.341 44.6986 107.773 43.2867C104.206 41.8748 100.295 41.5717 96.5521 42.4168C99.0717 41.3519 101.912 40.1664 104.939 38.9305C105.662 38.5999 106.411 38.3271 107.097 38.0486C110.134 40.6014 113.675 42.4842 117.49 43.5737C121.538 44.5891 126.046 44.2405 129.54 41.9608C126.537 38.6764 122.46 36.5733 118.043 36.0311C116.39 35.8092 114.723 35.6955 113.054 35.6908C115.023 34.9126 116.816 34.2065 118.341 33.605C119.387 33.1966 120.317 32.8235 121.09 32.5052C125.962 32.8227 130.811 31.6124 134.963 29.043C139.115 26.4736 142.362 22.673 144.251 18.171C139.237 17.561 134.173 18.8046 130.013 21.6677V21.6677Z" fill="#455A64"/>
<path d="M65.0388 49.5751C65.1127 49.3927 62.879 48.3691 59.2605 46.7639L57.5727 45.9975C58.0617 41.3337 57.4432 38.4526 54.9464 34.3503C52.3789 30.1317 48.9182 26.5402 45.4681 22.9525C44.5693 26.9705 44.9026 31.1661 46.4247 34.9917C47.9468 38.8173 50.5868 42.0952 54.0002 44.3975C51.3168 43.2124 48.2975 41.8663 45.1076 40.4147C44.3372 40.0679 43.5811 39.7144 42.839 39.3721C42.5958 35.1231 41.4574 30.9734 39.4983 27.195C37.3184 23.2887 33.7217 20.0303 29.3762 18.9761C29.0196 23.7356 30.377 28.4657 33.2031 32.3118C34.2406 33.7733 35.3733 35.1648 36.594 36.4772L31.082 33.885C29.9723 33.3699 29.024 32.9209 28.2108 32.5761C24.8759 28.5425 20.3668 25.6485 15.3106 24.2969C10.2544 22.9453 4.90272 23.2033 -2.13706e-06 25.0349C3.21197 29.4068 7.91012 32.4549 13.2114 33.6065C18.3062 34.6938 23.8769 35.9043 28.4334 33.5406C29.0927 33.9121 29.8358 34.3326 30.6525 34.7807C34.017 36.6332 38.7076 39.0154 43.9871 41.4429C40.1928 40.5617 36.302 40.165 32.4079 40.2622C27.7237 40.2357 23.135 41.5868 19.2124 44.1473C23.171 46.8434 27.9294 48.1116 32.7047 47.7433C37.4799 47.375 41.9876 45.3921 45.4859 42.1209C50.6342 44.4336 55.3625 46.3441 58.8816 47.6364L59.2293 47.7658C55.1682 47.3333 49.1572 47.74 45.4455 49.0269C41.62 50.4707 37.9096 52.2028 34.3462 54.2082C38.6321 56.2792 43.5085 56.7814 48.1265 55.6275C52.7445 54.4736 56.8116 51.7367 59.6197 47.8932C62.9169 49.1209 64.9767 49.7259 65.0388 49.5751Z" fill="#455A64"/>
<path d="M65.9168 42.9329C62.6534 42.6774 60.2049 39.8466 58.6186 36.875C56.6617 33.0933 55.5123 28.946 55.2434 24.6965C54.9744 20.447 55.5919 16.188 57.0564 12.1897C58.12 9.31713 59.7697 6.46489 62.3958 5.09771C64.3682 4.15961 66.6053 3.9367 68.724 4.46719C73.7622 5.54543 78.0144 9.49166 80.1303 14.4237C82.2462 19.3558 82.4524 25.1001 81.1972 30.4202C80.3673 33.9376 78.8743 37.3999 76.3448 39.8767C73.8153 42.3534 70.1339 43.6875 66.8793 42.6676" fill="#FF725E"/>
<path opacity="0.5" d="M65.9168 42.9329C62.6534 42.6774 60.2049 39.8466 58.6186 36.875C56.6617 33.0933 55.5123 28.946 55.2434 24.6965C54.9744 20.447 55.5919 16.188 57.0564 12.1897C58.12 9.31713 59.7697 6.46489 62.3958 5.09771C64.3682 4.15961 66.6053 3.9367 68.724 4.46719C73.7622 5.54543 78.0144 9.49166 80.1303 14.4237C82.2462 19.3558 82.4524 25.1001 81.1972 30.4202C80.3673 33.9376 78.8743 37.3999 76.3448 39.8767C73.8153 42.3534 70.1339 43.6875 66.8793 42.6676" fill="black"/>
<path d="M75.8058 43.1125C76.1638 36.1558 78.1998 29.3889 81.74 23.3895C83.2019 20.7572 85.1677 18.4384 87.5254 16.5655C89.8954 14.6807 92.8899 13.7606 95.9093 13.9896C97.4052 14.1306 98.8335 14.6802 100.038 15.5783C101.243 16.4763 102.177 17.6883 102.74 19.0817C103.626 21.6129 102.955 24.4635 101.695 26.8313C99.4423 31.0783 95.4847 34.1208 91.5177 36.8179C88.9842 38.6199 86.2704 40.154 83.42 41.3956C80.5607 42.6472 77.4371 43.1752 74.3252 42.9331" fill="#FF725E"/>
<path opacity="0.3" d="M75.8058 43.1125C76.1638 36.1558 78.1998 29.3889 81.74 23.3895C83.2019 20.7572 85.1677 18.4384 87.5254 16.5655C89.8954 14.6807 92.8899 13.7606 95.9093 13.9896C97.4052 14.1306 98.8335 14.6802 100.038 15.5783C101.243 16.4763 102.177 17.6883 102.74 19.0817C103.626 21.6129 102.955 24.4635 101.695 26.8313C99.4423 31.0783 95.4847 34.1208 91.5177 36.8179C88.9842 38.6199 86.2704 40.154 83.42 41.3956C80.5607 42.6472 77.4371 43.1752 74.3252 42.9331" fill="black"/>
<path d="M75.1493 52.4942C75.7246 53.2799 76.4919 53.9048 77.3777 54.3091C78.2636 54.7135 79.2384 54.8839 80.2088 54.8038C82.146 54.6126 84.028 54.0486 85.7511 53.143C89.1064 51.6778 92.2762 49.8201 95.1944 47.609C98.1159 45.3835 100.465 42.4935 102.046 39.1787C102.881 37.3546 103.309 34.965 101.9 33.529C100.647 32.2406 98.5572 32.3922 96.7791 32.6897C92.4359 33.4176 88.0869 34.5151 84.2417 36.6759C80.3965 38.8366 77.0902 42.1756 75.6474 46.3404C74.9412 48.086 74.8602 50.0221 75.4181 51.8206C75.7062 52.6997 76.2628 53.4663 77.0096 54.0122C77.7564 54.5582 78.6557 54.8561 79.5808 54.8638" fill="#FF725E"/>
<path opacity="0.1" d="M75.1493 52.4942C75.7246 53.2799 76.4919 53.9048 77.3777 54.3091C78.2636 54.7135 79.2384 54.8839 80.2088 54.8038C82.146 54.6126 84.028 54.0486 85.7511 53.143C89.1064 51.6778 92.2762 49.8201 95.1944 47.609C98.1159 45.3835 100.465 42.4935 102.046 39.1787C102.881 37.3546 103.309 34.965 101.9 33.529C100.647 32.2406 98.5572 32.3922 96.7791 32.6897C92.4359 33.4176 88.0869 34.5151 84.2417 36.6759C80.3965 38.8366 77.0902 42.1756 75.6474 46.3404C74.9412 48.086 74.8602 50.0221 75.4181 51.8206C75.7062 52.6997 76.2628 53.4663 77.0096 54.0122C77.7564 54.5582 78.6557 54.8561 79.5808 54.8638" fill="white"/>
<path d="M67.032 49.5377C68.781 44.4816 68.6157 38.9597 66.5674 34.0173C64.484 29.1032 60.8482 25.0067 56.2162 22.3546C54.4947 21.2545 52.5156 20.6231 50.475 20.5228C49.4539 20.4869 48.4419 20.7259 47.5446 21.2147C46.6474 21.7034 45.8978 22.4242 45.3742 23.3015C44.3329 25.3248 44.9807 27.773 45.7711 29.9026C47.1118 33.5257 48.8118 37.0056 50.8456 40.2903C52.6674 43.2416 54.2619 46.5941 57.217 48.3542C60.1722 50.1142 64.0232 51.2721 67.032 49.5377" fill="#FF725E"/>
<path d="M67.203 31.489C67.55 31.3303 68.6899 32.7144 69.7957 34.6734C70.9015 36.6325 71.4686 38.331 71.1637 38.5054C70.8589 38.6797 69.684 37.2767 68.5948 35.3538C67.5055 33.4309 66.8693 31.6766 67.203 31.489Z" fill="#F5F5F5"/>
<path d="M71.2383 38.3053C70.8607 38.3207 70.4683 36.5073 70.3684 34.263C70.2684 32.0188 70.4957 30.1842 70.8805 30.1655C71.2652 30.1469 71.647 31.9563 71.747 34.2006C71.847 36.4449 71.623 38.2867 71.2383 38.3053Z" fill="#F5F5F5"/>
<path d="M73.4396 31.7481C73.8081 31.7893 73.9732 33.1822 73.635 34.8315C73.2968 36.4808 72.6181 37.6915 72.2698 37.5798C71.9216 37.4681 71.9823 36.1293 72.3002 34.5504C72.6182 32.9716 73.0666 31.7351 73.4396 31.7481Z" fill="#F5F5F5"/>
<path d="M76.5844 30.3102C76.9504 30.4225 76.6963 32.313 76.0213 34.5446C75.3463 36.7762 74.5011 38.4826 74.1351 38.3703C73.769 38.258 74.0231 36.3675 74.7014 34.1431C75.3797 31.9187 76.2084 30.1762 76.5844 30.3102Z" fill="#F5F5F5"/>
<path d="M79.6872 32.8329C79.966 33.0987 79.0241 34.5172 77.6653 36.0564C76.3065 37.5956 74.9987 38.692 74.6975 38.4539C74.3964 38.2158 75.2421 36.7015 76.6337 35.1385C78.0252 33.5755 79.4188 32.5711 79.6872 32.8329Z" fill="#F5F5F5"/>
<path d="M81.5273 35.977C81.7188 36.3002 80.5206 37.3115 78.8459 38.2173C77.1713 39.123 75.6646 39.5936 75.4987 39.25C75.3328 38.9063 76.527 37.9056 78.1873 37.0064C79.8475 36.1072 81.3324 35.6466 81.5273 35.977Z" fill="#F5F5F5"/>
<path d="M68.6899 37.5303C68.632 37.5567 66.3535 35.6708 63.5778 33.2519C60.802 30.833 58.5988 28.8252 58.6507 28.7665C58.7025 28.7078 60.987 30.626 63.7628 33.0449C66.5385 35.4638 68.7417 37.4716 68.6899 37.5303Z" fill="#263238"/>
<path d="M69.385 37.5973C69.0699 37.2927 68.7872 36.9563 68.5413 36.5935C68.0444 35.9467 67.4003 35.0351 66.7249 33.998C66.0495 32.9608 65.4854 31.9952 65.0844 31.2521C64.8548 30.8782 64.6716 30.4777 64.5389 30.0594C64.819 30.3943 65.0661 30.7555 65.2769 31.1378L66.9665 33.8001L68.7106 36.4286C68.9758 36.7934 69.2019 37.1851 69.385 37.5973V37.5973Z" fill="#263238"/>
<path d="M71.1587 37.7298C71.0864 37.7629 70.123 35.0832 68.991 31.7289C67.8589 28.3747 67.0271 25.696 67.0954 25.6735C67.1638 25.6509 68.1311 28.3201 69.2632 31.6743C70.3952 35.0286 71.2271 37.7073 71.1587 37.7298Z" fill="#263238"/>
<path d="M71.4773 36.955C71.4259 36.7153 71.3963 36.4714 71.3888 36.2263C71.3515 35.7626 71.3111 35.0819 71.2763 34.2413C71.2099 32.5673 71.1946 30.2406 71.2583 27.6854C71.3221 25.1303 71.5094 22.807 71.6811 21.1377C71.7706 20.3014 71.8618 19.6217 71.9133 19.1611C71.9365 18.92 71.9793 18.6812 72.0413 18.447C72.0592 18.6887 72.0531 18.9315 72.0232 19.172L71.8726 21.155C71.7614 22.8229 71.6135 25.1368 71.532 27.6913C71.4505 30.2459 71.4519 32.5614 71.4756 34.2375L71.5065 36.2162C71.5163 36.4628 71.5065 36.7099 71.4773 36.955V36.955Z" fill="#263238"/>
<path d="M74.4657 38.2715C74.388 38.2546 75.014 34.7693 75.8565 30.477C76.6991 26.1847 77.462 22.7503 77.5487 22.7107C77.6355 22.671 77.0004 26.2129 76.1507 30.5085C75.3009 34.8041 74.5597 38.2286 74.4657 38.2715Z" fill="#263238"/>
<path d="M85.1103 24.6624C85.0428 24.8639 84.9562 25.0586 84.8518 25.2438C84.6757 25.6041 84.3836 26.131 84.045 26.7666C83.3394 28.0333 82.312 29.7618 81.0809 31.6184C79.8499 33.4751 78.6281 35.0653 77.7104 36.193C77.2499 36.7532 76.8714 37.206 76.5722 37.5264C76.4446 37.6939 76.296 37.8441 76.1299 37.9734C76.2309 37.7883 76.3502 37.6138 76.4858 37.4523C76.7724 37.0852 77.1154 36.6311 77.5359 36.098C78.4048 34.9401 79.5917 33.331 80.8293 31.4888C82.067 29.6466 83.1182 27.9509 83.8836 26.7006L84.7636 25.223C84.8537 25.0215 84.9703 24.8329 85.1103 24.6624V24.6624Z" fill="#263238"/>
<path d="M87.0754 30.3539C87.0754 30.3539 86.9738 30.514 86.7481 30.7658C86.5224 31.0176 86.1903 31.3618 85.7736 31.7883C84.9329 32.6448 83.7337 33.7876 82.3617 34.992C80.9896 36.1964 79.6876 37.229 78.7308 37.9463C78.2521 38.3138 77.862 38.5884 77.5849 38.7851C77.4515 38.8975 77.3006 38.9871 77.1382 39.0505C77.6031 38.6038 78.0951 38.1861 78.6114 37.7999C79.5378 37.0353 80.805 35.9837 82.1803 34.7866C83.5557 33.5894 84.7648 32.4683 85.6325 31.6518C86.0879 31.1916 86.5696 30.7582 87.0754 30.3539Z" fill="#263238"/>
<path d="M88.4709 33.2907C88.043 33.7134 87.5773 34.0961 87.0797 34.4339C86.1919 35.1109 84.9375 35.9993 83.5142 36.9387C82.0908 37.8781 80.7914 38.6298 79.7908 39.1748C79.2764 39.4893 78.7364 39.7597 78.1764 39.9831C78.659 39.6217 79.1672 39.2958 79.697 39.008C80.6383 38.4288 81.9501 37.6278 83.3656 36.7095C84.7811 35.7911 86.0454 34.9245 86.9708 34.2914C87.4471 33.9235 87.9483 33.5891 88.4709 33.2907V33.2907Z" fill="#263238"/>
<path d="M57.0867 27.2008C56.9342 27.2845 56.8083 27.4093 56.7232 27.5611C56.638 27.7128 56.5972 27.8853 56.6052 28.0591C56.6431 28.2533 56.7268 28.4357 56.8495 28.5909C56.9722 28.7462 57.1303 28.8698 57.3105 28.9515C57.4925 29.0596 57.6959 29.1267 57.9065 29.1482C58.117 29.1696 58.3297 29.1448 58.5298 29.0756C58.7914 28.9378 58.9885 28.7029 59.0787 28.4214C59.169 28.1399 59.1452 27.8341 59.0124 27.57C58.7858 27.2946 58.4703 27.1067 58.1201 27.0388C57.77 26.9708 57.4072 27.0269 57.094 27.1975" fill="#263238"/>
<path d="M71.1041 16.9524C70.9502 17.0329 70.8228 17.1559 70.7368 17.3068C70.6509 17.4577 70.6101 17.6301 70.6193 17.8035C70.655 17.9931 70.7368 18.1711 70.8575 18.3217C70.9782 18.4722 71.134 18.5908 71.3114 18.6669C71.4876 18.7743 71.6853 18.8417 71.8904 18.8641C72.0955 18.8866 72.3031 18.8637 72.4984 18.797C72.7564 18.6632 72.9512 18.433 73.0407 18.1565C73.1302 17.88 73.1071 17.5794 72.9765 17.3197C72.7552 17.0511 72.4476 16.8677 72.1061 16.8007C71.7646 16.7337 71.4104 16.7873 71.1041 16.9524" fill="#263238"/>
<path d="M83.743 24.2912C83.5892 24.3717 83.4617 24.4947 83.3758 24.6456C83.2898 24.7964 83.249 24.9688 83.2582 25.1422C83.2933 25.3321 83.3748 25.5104 83.4956 25.6611C83.6164 25.8117 83.7726 25.9301 83.9503 26.0057C84.1255 26.1157 84.3233 26.1846 84.5289 26.2072C84.7345 26.2297 84.9425 26.2053 85.1373 26.1358C85.3953 26.0019 85.5902 25.7718 85.6796 25.4953C85.7691 25.2188 85.7461 24.9181 85.6154 24.6585C85.3933 24.3911 85.0857 24.2086 84.7446 24.1417C84.4035 24.0748 84.0497 24.1276 83.743 24.2912" fill="#263238"/>
<path d="M66.4655 24.4493C66.3631 24.5083 66.2786 24.594 66.2212 24.6973C66.1637 24.8005 66.1354 24.9175 66.1393 25.0356C66.162 25.1667 66.2174 25.2899 66.3001 25.3941C66.3829 25.4983 66.4905 25.58 66.613 25.6318C66.7346 25.7057 66.8709 25.752 67.0124 25.7674C67.1538 25.7827 67.2969 25.7668 67.4315 25.7206C67.6043 25.6219 67.7338 25.462 67.7944 25.2725C67.8549 25.0829 67.8422 24.8776 67.7587 24.697C67.6079 24.5051 67.3945 24.3722 67.1557 24.3217C66.9169 24.2711 66.6679 24.3061 66.4523 24.4204" fill="#263238"/>
<path d="M86.4224 29.5952C86.3182 29.6535 86.2319 29.7393 86.1731 29.8433C86.1143 29.9472 86.0852 30.0654 86.089 30.1848C86.1129 30.316 86.1695 30.4391 86.2536 30.5427C86.3376 30.6463 86.4464 30.7271 86.5699 30.7776C86.6908 30.8532 86.8273 30.9004 86.969 30.9158C87.1108 30.9312 87.2541 30.9143 87.3885 30.8665C87.5612 30.7678 87.6907 30.6079 87.7513 30.4183C87.8118 30.2288 87.7991 30.0234 87.7156 29.8428C87.5639 29.6522 87.3505 29.5203 87.1121 29.4699C86.8737 29.4194 86.6252 29.4535 86.4092 29.5663" fill="#263238"/>
<path d="M87.8179 32.5315C87.7137 32.5898 87.6274 32.6756 87.5686 32.7796C87.5098 32.8835 87.4807 33.0017 87.4845 33.1211C87.5072 33.2521 87.5625 33.3754 87.6453 33.4796C87.7281 33.5838 87.8356 33.6655 87.9582 33.7173C88.0809 33.7918 88.2187 33.8381 88.3615 33.8529C88.5043 33.8677 88.6486 33.8506 88.784 33.8028C88.9547 33.703 89.082 33.5432 89.1412 33.3545C89.2003 33.1658 89.1871 32.9619 89.1039 32.7824C88.9539 32.5917 88.742 32.4594 88.5048 32.4083C88.2675 32.3572 88.0199 32.3906 87.8047 32.5026" fill="#263238"/>
<path d="M63.5094 29.0703C63.4038 29.1254 63.3161 29.2094 63.2565 29.3125C63.1969 29.4157 63.1678 29.5336 63.1727 29.6526C63.1986 29.7838 63.2553 29.907 63.3383 30.0119C63.4212 30.1169 63.528 30.2005 63.6497 30.256C63.773 30.329 63.9107 30.3744 64.0532 30.3892C64.1958 30.404 64.3398 30.3877 64.4755 30.3416C64.6462 30.2418 64.7735 30.0819 64.8327 29.8932C64.8918 29.7046 64.8785 29.5006 64.7954 29.3212C64.6473 29.1279 64.4353 28.9936 64.1973 28.9423C63.9592 28.891 63.7107 28.9262 63.4962 29.0414" fill="#263238"/>
<path d="M77.0821 21.4994C76.9765 21.5546 76.8888 21.6386 76.8291 21.7417C76.7695 21.8448 76.7404 21.9627 76.7453 22.0817C76.7685 22.2146 76.8251 22.3395 76.9098 22.4444C76.9945 22.5494 77.1046 22.6311 77.2296 22.6818C77.3511 22.7558 77.4875 22.8021 77.6289 22.8175C77.7704 22.8328 77.9135 22.8169 78.0481 22.7707C78.2209 22.672 78.3503 22.5121 78.4109 22.3225C78.4715 22.133 78.4588 21.9277 78.3753 21.747C78.2254 21.5538 78.0119 21.42 77.7727 21.3694C77.5335 21.3188 77.2841 21.3546 77.0688 21.4705" fill="#263238"/>
<path d="M61.8234 52.5582C63.7297 54.2036 65.9604 55.6219 68.4621 55.8937C70.7483 56.0183 73.0228 55.4903 75.0203 54.3713C78.1052 52.803 80.9903 50.2248 81.5079 46.7891C81.6441 45.4119 81.4515 44.0221 80.9459 42.7338C80.4402 41.4456 79.636 40.2958 78.5994 39.3789C76.4911 37.5522 73.9181 36.345 71.1657 35.8914C68.5185 35.27 65.7544 35.3557 63.1507 36.1397C61.8554 36.5366 60.6641 37.2152 59.6621 38.1268C58.6601 39.0384 57.8722 40.1605 57.355 41.4126C56.438 43.9559 57.92 49.5275 61.8267 52.5655" fill="#FF725E"/>
<path opacity="0.2" d="M61.8234 52.5582C63.7297 54.2036 65.9604 55.6219 68.4621 55.8937C70.7483 56.0183 73.0228 55.4903 75.0203 54.3713C78.1052 52.803 80.9903 50.2248 81.5079 46.7891C81.6441 45.4119 81.4515 44.0221 80.9459 42.7338C80.4402 41.4456 79.636 40.2958 78.5994 39.3789C76.4911 37.5522 73.9181 36.345 71.1657 35.8914C68.5185 35.27 65.7544 35.3557 63.1507 36.1397C61.8554 36.5366 60.6641 37.2152 59.6621 38.1268C58.6601 39.0384 57.8722 40.1605 57.355 41.4126C56.438 43.9559 57.92 49.5275 61.8267 52.5655" fill="white"/>
</svg>
